<svg width="512" height="512" xmlns="http://www.w3.org/2000/svg" enable-background="new 0 0 512 512" version="1.1">
 <g>
  <title>Layer 1</title>
  <path stroke="#ffffff" fill="#ffff00" id="svg_2" d="m511.344,123.469c0.096,-0.036 -0.1,0.035 0,0l-19.922,-67.242c-9.774,-24.438 -33.102,-40.227 -59.422,-40.227l-127.008,0c-26.32,0 -49.641,15.789 -59.844,41.43l-16.935,54.57l-68.213,0l0,-46c0,-0.354 -0.18,-0.651 -0.202,-1c0.022,-0.349 0.202,-0.646 0.202,-1c0,-8.836 -7.164,-16 -16,-16l-80,0c-8.836,0 -16,7.164 -16,16l0,48l-32,0c-8.836,0 -16,7.164 -16,16l0,352c0,8.836 7.164,16 16,16l480,0c8.836,0 16,-7.164 16,-16l0,-352c0,-1.564 -0.237,-3.103 -0.656,-4.531zm-236.063,-55.352c4.891,-12.219 16.555,-20.117 29.711,-20.117l127.008,0c13.164,0 24.828,7.898 29.227,18.703l13.37,45.297l-212.897,0l13.581,-43.883zm-195.281,11.883l48,0l0,32l-48,0l0,-32zm400,384l-448,0l0,-320l207.957,0c0.017,0 0.034,0.008 0.051,0.008s0.032,-0.008 0.049,-0.008l239.943,0l0,320z"/>
 </g>

</svg>