<svg width="512" height="512" xmlns="http://www.w3.org/2000/svg" enable-background="new 0 0 512 512" version="1.1">

 <g>
  <title>Layer 1</title>
  <path fill="#ffff00" id="svg_1" d="m511.413,475.717l-80,-287.999c-1.922,-6.93 -8.227,-11.718 -15.414,-11.718l-143.999,0l0,-34.274c32,-7.156 48,-31.994 48,-61.726c0,-35.289 -28.711,-64 -64,-64s-64,28.711 -64,64c0,29.732 16,54.57 48,61.726l0,34.274l-143.999,0c-7.188,0 -13.492,4.789 -15.414,11.718l-80,287.999c-1.344,4.82 -0.352,9.985 2.68,13.962c3.023,3.984 7.734,6.321 12.734,6.321l479.998,0c5,0 9.711,-2.337 12.734,-6.321c3.032,-3.977 4.024,-9.142 2.68,-13.962zm-287.413,-395.717c0,-17.648 14.352,-32 32,-32s32,14.352 32,32s-14.352,32 -32,32s-32,-14.352 -32,-32zm-186.952,384l71.117,-256l295.671,0l71.117,256l-437.905,0z"/>
 </g>
</svg>
