<?xml version="1.0"?>
<svg width="512" height="512" xmlns="http://www.w3.org/2000/svg" xmlns:svg="http://www.w3.org/2000/svg" enable-background="new 0 0 465 465" version="1.1" xml:space="preserve">
 <g class="layer">
  <title>Layer 1</title>
  <g id="svg_1">
   <path d="m476.82,148.93l-2.25,0l0,-69.62c0,-9.38 -7.62,-17.01 -17,-17.01l-28.36,0c-1.31,-7.62 -7.97,-13.45 -15.97,-13.45l-52.89,0c-8,0 -14.65,5.82 -15.96,13.45l-154.86,0c-4.07,0 -7.38,3.31 -7.38,7.38l0,40.76l-14.12,0l0,-21.67c0,-4.07 -3.31,-7.38 -7.38,-7.38l-97.75,0c-4.07,0 -7.38,3.31 -7.38,7.38l0,21.67l-2.25,0c-9.38,0 -17.01,7.62 -17.01,17l0,21.5l-2.25,0c-4.07,0 -7.38,3.31 -7.38,7.38s3.31,7.38 7.38,7.38l2.25,0l0,204.38c0,9.38 7.63,17 17.01,17l404.27,0c9.38,0 17,-7.62 17,-17l0,-204.38l2.25,0c4.07,0 7.38,-3.31 7.38,-7.38s-3.31,-7.38 -7.38,-7.38l0.02,0l0.01,-0.01zm-117.92,-83.86c0,-0.81 0.66,-1.46 1.45,-1.46l52.89,0c0.81,0 1.46,0.66 1.46,1.46l0,52.89c0,0.8 -0.66,1.45 -1.46,1.45l-52.89,0c-0.8,0 -1.45,-0.66 -1.45,-1.45l0,-52.89zm-288.6,31.07l82.99,0l0,14.29l-82.99,0l0,-14.29zm-19.26,31.29c0,-1.22 1.04,-2.25 2.25,-2.25l136.24,0c4.07,0 7.38,-3.31 7.38,-7.38l0,-40.76l147.21,0l0,40.91c0,8.94 7.28,16.21 16.21,16.21l52.89,0c8.95,0 16.23,-7.28 16.23,-16.21l0,-40.91l28.09,0c1.22,0 2.25,1.04 2.25,2.25l0,69.62l-408.77,0l0,-21.5l0.01,0.01l0.01,0.01zm406.52,242.89l-404.28,0c-1.21,0 -2.25,-1.04 -2.25,-2.25l0,-11.88l50.37,0c4.07,0 7.38,-3.31 7.38,-7.38s-3.31,-7.38 -7.38,-7.38l-50.37,0l0,-177.75l180.01,0c-30.16,18.13 -50.39,51.18 -50.39,88.88c0,37.69 20.23,70.74 50.39,88.87l-100.11,0c-4.07,0 -7.38,3.31 -7.38,7.38s3.31,7.38 7.38,7.38l328.87,0l0,11.88c0,1.21 -1.04,2.25 -2.25,2.25l0.01,0zm-173.26,-206.63c49,0 88.87,39.87 88.87,88.88c0,49 -39.87,88.87 -88.87,88.87s-88.88,-39.87 -88.88,-88.88c0,-49 39.87,-88.87 88.88,-88.87zm175.5,177.75l-122.26,0c30.16,-18.13 50.37,-51.18 50.37,-88.87c0,-37.7 -20.22,-70.74 -50.37,-88.88l122.26,0l0,177.75z" fill="#ffe400" id="svg_2"/>
   <path d="m409.44,271.17c-4.07,0 -7.38,3.31 -7.38,7.38s3.31,7.38 7.38,7.38c11.21,0 20.32,-9.12 20.32,-20.32l0,-26.11c0,-11.2 -9.11,-20.32 -20.32,-20.32c-4.07,0 -7.38,3.31 -7.38,7.38s3.31,7.38 7.38,7.38c3.07,0 5.56,2.5 5.56,5.56l0,26.11c0,3.06 -2.49,5.56 -5.56,5.56z" fill="#ffe400" id="svg_3"/>
   <path d="m284.31,327.31c41.22,0 74.77,-33.54 74.77,-74.77s-33.55,-74.75 -74.77,-74.75s-74.77,33.54 -74.77,74.75s33.54,74.77 74.77,74.77zm0,-134.75c33.08,0 60,26.91 60,60s-26.92,59.99 -60,59.99c-33.09,0 -60,-26.91 -60,-59.99s26.91,-60 60,-60z" fill="#ffe400" id="svg_4"/>
   <path d="m284.31,297.79c24.94,0 45.24,-20.29 45.24,-45.24c0,-4.07 -3.31,-7.38 -7.38,-7.38s-7.38,3.31 -7.38,7.38c0,16.81 -13.68,30.48 -30.48,30.48c-4.07,0 -7.38,3.31 -7.38,7.38s3.3,7.38 7.38,7.38z" fill="#ffe400" id="svg_5"/>
  </g>
  <g id="svg_6"/>
  <g id="svg_7"/>
  <g id="svg_8"/>
  <g id="svg_9"/>
  <g id="svg_10"/>
  <g id="svg_11"/>
  <g id="svg_12"/>
  <g id="svg_13"/>
  <g id="svg_14"/>
  <g id="svg_15"/>
  <g id="svg_16"/>
  <g id="svg_17"/>
  <g id="svg_18"/>
  <g id="svg_19"/>
  <g id="svg_20"/>
  <text fill="#ffe400" font-family="Roboto" font-size="72" id="svg_21" text-anchor="middle" transform="matrix(1 0 0 1 0 0)" x="248.27" xml:space="preserve" y="491.73">КАМЕРА</text>
 </g>
</svg>