<?xml version="1.0"?>
<svg width="463" height="463" xmlns="http://www.w3.org/2000/svg" xmlns:svg="http://www.w3.org/2000/svg" enable-background="new 0 0 463 463" version="1.1" xml:space="preserve">
 <g class="layer">
  <title>Layer 1</title>
  <path d="m408.62,184.91l0,0l0,172.61c0,8.78 -6.9,15.7 -15.7,15.7s-15.7,-6.9 -15.7,-15.7l0,-62.77c0,-26.05 -21.02,-47.08 -47.08,-47.08l-47.08,0l0,-188.3c0,-17.27 -14.12,-31.38 -31.38,-31.38l-188.3,0c-17.27,0 -31.38,14.12 -31.38,31.38l0,345.23c0,17.27 14.12,31.38 31.38,31.38l188.3,0c17.27,0 31.38,-14.12 31.38,-31.38l0,-125.53l47.08,0c8.78,0 15.7,6.9 15.7,15.7l0,62.77c0,26.05 21.02,47.08 47.08,47.08s47.08,-21.02 47.08,-47.08l0,-204c0,-17.27 -14.12,-31.38 -31.38,-31.38l0,0l0,-47.39c-0.31,-8.47 -7.21,-15.37 -15.7,-15.37c-8.78,0 -16.01,7.54 -15.7,16.32c0,0.31 0,0.62 0,0.95l0,76.9c0,17.27 14.12,31.38 31.38,31.38s31.38,-14.12 31.38,-31.38s-14.12,-31.38 -31.38,-31.38m-156.91,78.47c0,8.78 -6.9,15.7 -15.7,15.7l-156.91,0c-8.78,0 -15.7,-6.9 -15.7,-15.7l0,-94.15c0,-8.78 6.9,-15.7 15.7,-15.7l156.91,0c8.78,0 15.7,6.9 15.7,15.7l0,94.15z" fill="#ffe400" id="svg_1"/>
 </g>
</svg>