<?xml version="1.0"?>
<svg width="512" height="512" xmlns="http://www.w3.org/2000/svg" xmlns:svg="http://www.w3.org/2000/svg" enable-background="new 0 0 45.999 45.999" version="1.1" xml:space="preserve">
 <g class="layer">
  <title>Layer 1</title>
  <text fill="#ffe400" font-family="Roboto" font-size="72" id="svg_20" stroke-linecap="round" stroke-width="0" text-anchor="middle" x="256" xml:space="preserve" y="492.47">ИНФО.</text>
  <g id="svg_19">
   <g id="svg_1">
    <g id="svg_2">
     <path d="m374.92,102.6c-63.84,-63.92 -167.36,-63.92 -231.2,0c-63.92,63.84 -63.84,167.36 0,231.2c63.84,63.84 167.36,63.84 231.2,0c63.84,-63.84 63.84,-167.36 0,-231.2zm-94.28,186.7c0,11.8 -9.53,21.33 -21.33,21.33s-21.33,-9.53 -21.33,-21.33l0,-85.32c0,-11.8 9.53,-21.33 21.33,-21.33s21.33,9.53 21.33,21.33l0,85.32zm-21.68,-121.79c-12.3,0 -20.47,-8.68 -20.26,-19.41c-0.21,-11.3 7.96,-19.7 20.47,-19.7c12.59,0 20.47,8.39 20.76,19.7c0,10.74 -8.17,19.41 -20.97,19.41z" fill="#ffe400" id="svg_3"/>
    </g>
   </g>
   <g id="svg_4"/>
   <g id="svg_5"/>
   <g id="svg_6"/>
   <g id="svg_7"/>
   <g id="svg_8"/>
   <g id="svg_9"/>
   <g id="svg_10"/>
   <g id="svg_11"/>
   <g id="svg_12"/>
   <g id="svg_13"/>
   <g id="svg_14"/>
   <g id="svg_15"/>
   <g id="svg_16"/>
   <g id="svg_17"/>
   <g id="svg_18"/>
  </g>
 </g>
</svg>