<svg width="463" height="463" xmlns="http://www.w3.org/2000/svg" xmlns:svg="http://www.w3.org/2000/svg" enable-background="new 0 0 463 463" version="1.1" xml:space="preserve">
 <g class="layer">
  <title>Layer 1</title>
  <g id="svg_1">
   <path d="m271.5,160l-80,0c-17.37,0 -31.5,14.13 -31.5,31.5l0,80c0,17.37 14.13,31.5 31.5,31.5l80,0c17.37,0 31.5,-14.13 31.5,-31.5l0,-80c0,-17.37 -14.13,-31.5 -31.5,-31.5zm16.5,111.5c0,9.1 -7.4,16.5 -16.5,16.5l-80,0c-9.1,0 -16.5,-7.4 -16.5,-16.5l0,-80c0,-9.1 7.4,-16.5 16.5,-16.5l80,0c9.1,0 16.5,7.4 16.5,16.5l0,80z" fill="#ffe400" id="svg_2" stroke="#ffffff" stroke-width="0"/>
   <path d="m111.5,160l-80,0c-17.37,0 -31.5,14.13 -31.5,31.5l0,80c0,17.37 14.13,31.5 31.5,31.5l80,0c17.37,0 31.5,-14.13 31.5,-31.5l0,-80c0,-17.37 -14.13,-31.5 -31.5,-31.5zm16.5,111.5c0,9.1 -7.4,16.5 -16.5,16.5l-80,0c-9.1,0 -16.5,-7.4 -16.5,-16.5l0,-80c0,-9.1 7.4,-16.5 16.5,-16.5l80,0c9.1,0 16.5,7.4 16.5,16.5l0,80z" fill="#ffe400" id="svg_3" stroke="#ffffff" stroke-width="0"/>
   <path d="m431.5,160l-80,0c-17.37,0 -31.5,14.13 -31.5,31.5l0,80c0,17.37 14.13,31.5 31.5,31.5l80,0c17.37,0 31.5,-14.13 31.5,-31.5l0,-80c0,-17.37 -14.13,-31.5 -31.5,-31.5zm16.5,111.5c0,9.1 -7.4,16.5 -16.5,16.5l-80,0c-9.1,0 -16.5,-7.4 -16.5,-16.5l0,-80c0,-9.1 7.4,-16.5 16.5,-16.5l80,0c9.1,0 16.5,7.4 16.5,16.5l0,80z" fill="#ffe400" id="svg_4" stroke="#ffffff" stroke-width="0"/>
   <path d="m271.5,0l-80,0c-17.37,0 -31.5,14.13 -31.5,31.5l0,80c0,17.37 14.13,31.5 31.5,31.5l80,0c17.37,0 31.5,-14.13 31.5,-31.5l0,-80c0,-17.37 -14.13,-31.5 -31.5,-31.5zm16.5,111.5c0,9.1 -7.4,16.5 -16.5,16.5l-80,0c-9.1,0 -16.5,-7.4 -16.5,-16.5l0,-80c0,-9.1 7.4,-16.5 16.5,-16.5l80,0c9.1,0 16.5,7.4 16.5,16.5l0,80z" fill="#ffe400" id="svg_5" stroke="#ffffff" stroke-width="0"/>
   <path d="m111.5,0l-80,0c-17.37,0 -31.5,14.13 -31.5,31.5l0,80c0,17.37 14.13,31.5 31.5,31.5l80,0c17.37,0 31.5,-14.13 31.5,-31.5l0,-80c0,-17.37 -14.13,-31.5 -31.5,-31.5zm16.5,111.5c0,9.1 -7.4,16.5 -16.5,16.5l-80,0c-9.1,0 -16.5,-7.4 -16.5,-16.5l0,-80c0,-9.1 7.4,-16.5 16.5,-16.5l80,0c9.1,0 16.5,7.4 16.5,16.5l0,80z" fill="#ffe400" id="svg_6" stroke="#ffffff" stroke-width="0"/>
   <path d="m431.5,0l-80,0c-17.37,0 -31.5,14.13 -31.5,31.5l0,80c0,17.37 14.13,31.5 31.5,31.5l80,0c17.37,0 31.5,-14.13 31.5,-31.5l0,-80c0,-17.37 -14.13,-31.5 -31.5,-31.5zm16.5,111.5c0,9.1 -7.4,16.5 -16.5,16.5l-80,0c-9.1,0 -16.5,-7.4 -16.5,-16.5l0,-80c0,-9.1 7.4,-16.5 16.5,-16.5l80,0c9.1,0 16.5,7.4 16.5,16.5l0,80z" fill="#ffe400" id="svg_7" stroke="#ffffff" stroke-width="0"/>
   <path d="m271.5,320l-80,0c-17.37,0 -31.5,14.13 -31.5,31.5l0,80c0,17.37 14.13,31.5 31.5,31.5l80,0c17.37,0 31.5,-14.13 31.5,-31.5l0,-80c0,-17.37 -14.13,-31.5 -31.5,-31.5zm16.5,111.5c0,9.1 -7.4,16.5 -16.5,16.5l-80,0c-9.1,0 -16.5,-7.4 -16.5,-16.5l0,-80c0,-9.1 7.4,-16.5 16.5,-16.5l80,0c9.1,0 16.5,7.4 16.5,16.5l0,80z" fill="#ffe400" id="svg_8" stroke="#ffffff" stroke-width="0"/>
   <path d="m111.5,320l-80,0c-17.37,0 -31.5,14.13 -31.5,31.5l0,80c0,17.37 14.13,31.5 31.5,31.5l80,0c17.37,0 31.5,-14.13 31.5,-31.5l0,-80c0,-17.37 -14.13,-31.5 -31.5,-31.5zm16.5,111.5c0,9.1 -7.4,16.5 -16.5,16.5l-80,0c-9.1,0 -16.5,-7.4 -16.5,-16.5l0,-80c0,-9.1 7.4,-16.5 16.5,-16.5l80,0c9.1,0 16.5,7.4 16.5,16.5l0,80z" fill="#ffe400" id="svg_9" stroke="#ffffff" stroke-width="0"/>
   <path d="m431.5,320l-80,0c-17.37,0 -31.5,14.13 -31.5,31.5l0,80c0,17.37 14.13,31.5 31.5,31.5l80,0c17.37,0 31.5,-14.13 31.5,-31.5l0,-80c0,-17.37 -14.13,-31.5 -31.5,-31.5zm16.5,111.5c0,9.1 -7.4,16.5 -16.5,16.5l-80,0c-9.1,0 -16.5,-7.4 -16.5,-16.5l0,-80c0,-9.1 7.4,-16.5 16.5,-16.5l80,0c9.1,0 16.5,7.4 16.5,16.5l0,80z" fill="#ffe400" id="svg_10" stroke="#ffffff" stroke-width="0"/>
  </g>
  <g id="svg_11"/>
  <g id="svg_12"/>
  <g id="svg_13"/>
  <g id="svg_14"/>
  <g id="svg_15"/>
  <g id="svg_16"/>
  <g id="svg_17"/>
  <g id="svg_18"/>
  <g id="svg_19"/>
  <g id="svg_20"/>
  <g id="svg_21"/>
  <g id="svg_22"/>
  <g id="svg_23"/>
  <g id="svg_24"/>
  <g id="svg_25"/>
 </g>
</svg>
