<?xml version="1.0"?>
<svg width="489" height="489" xmlns="http://www.w3.org/2000/svg" xmlns:svg="http://www.w3.org/2000/svg" enable-background="new 0 0 489 489" version="1.1" xml:space="preserve">
 <g class="layer">
  <title>Layer 1</title>
  <g id="svg_1">
   <g id="svg_2">
    <path d="m339.4,102c0,-10 -8.1,-18.1 -18.1,-18.1l-69.9,0c-10,0 -18.1,8.1 -18.1,18.1l0,69.9c0,10 8.1,18.1 18.1,18.1l69.9,0c10,0 18.1,-8.1 18.1,-18.1l0,-69.9z" fill="#ffff00" id="svg_3" stroke="#e5e5e5" stroke-width="1"/>
    <path d="m488.9,102c0,-10 -8.1,-18.1 -18.1,-18.1l-69.9,0c-10,0 -18.1,8.1 -18.1,18.1l0,69.9c0,10 8.1,18.1 18.1,18.1l69.9,0c10,0 18.1,-8.1 18.1,-18.1l0,-69.9z" fill="#ffff00" id="svg_4" stroke="#e5e5e5" stroke-width="1"/>
    <path d="m339.4,251.5c0,-10 -8.1,-18.1 -18.1,-18.1l-69.9,0c-10,0 -18.1,8.1 -18.1,18.1l0,69.9c0,10 8.1,18.1 18.1,18.1l69.9,0c10,0 18.1,-8.1 18.1,-18.1l0,-69.9z" fill="#ffff00" id="svg_5" stroke="#e5e5e5" stroke-width="1"/>
    <path d="m488.9,251.5c0,-10 -8.1,-18.1 -18.1,-18.1l-69.9,0c-10,0 -18.1,8.1 -18.1,18.1l0,69.9c0,10 8.1,18.1 18.1,18.1l69.9,0c10,0 18.1,-8.1 18.1,-18.1l0,-69.9z" fill="#ffff00" id="svg_6" stroke="#e5e5e5" stroke-width="1"/>
    <path d="m189.9,251.5c0,-10 -8.1,-18.1 -18.1,-18.1l-69.9,0c-10,0 -18.1,8.1 -18.1,18.1l0,69.9c0,10 8.1,18.1 18.1,18.1l69.9,0c10,0 18.1,-8.1 18.1,-18.1l0,-69.9z" fill="#ffff00" id="svg_7" stroke="#e5e5e5" stroke-width="1"/>
    <path d="m321.3,382.9l-69.9,0c-10,0 -18.1,8.1 -18.1,18.1l0,69.9c0,10 8.1,18.1 18.1,18.1l69.9,0c10,0 18.1,-8.1 18.1,-18.1l0,-69.9c0,-10 -8.1,-18.1 -18.1,-18.1z" fill="#ffff00" id="svg_8" stroke="#e5e5e5" stroke-width="1"/>
    <path d="m400.9,489l69.9,0c10,0 18.1,-8.1 18.1,-18.1l0,-69.9c0,-10 -8.1,-18.1 -18.1,-18.1l-69.9,0c-10,0 -18.1,8.1 -18.1,18.1l0,69.9c0,10 8.1,18.1 18.1,18.1z" fill="#ffff00" id="svg_9" stroke="#e5e5e5" stroke-width="1"/>
    <path d="m171.8,382.9l-69.9,0c-10,0 -18.1,8.1 -18.1,18.1l0,69.9c0,10 8.1,18.1 18.1,18.1l69.9,0c10,0 18.1,-8.1 18.1,-18.1l0,-69.9c0,-10 -8.1,-18.1 -18.1,-18.1z" fill="#ffff00" id="svg_10" stroke="#e5e5e5" stroke-width="1"/>
    <path d="m145,45.3l0,99.6l-99.6,0l0,-99.6l99.6,0m17.2,-45.3l-134,0c-15.5,0 -28.1,12.6 -28.1,28.1l0,137.3c0,13.7 11.1,24.8 24.8,24.8l137.3,0c15.5,0 28.1,-12.6 28.1,-28.1l0,-134c0,-15.5 -12.6,-28.1 -28.1,-28.1l0,0z" fill="#ffff00" id="svg_11" stroke="#e5e5e5" stroke-width="1"/>
   </g>
  </g>
  <g id="svg_12"/>
  <g id="svg_13"/>
  <g id="svg_14"/>
  <g id="svg_15"/>
  <g id="svg_16"/>
  <g id="svg_17"/>
  <g id="svg_18"/>
  <g id="svg_19"/>
  <g id="svg_20"/>
  <g id="svg_21"/>
  <g id="svg_22"/>
  <g id="svg_23"/>
  <g id="svg_24"/>
  <g id="svg_25"/>
  <g id="svg_26"/>
 </g>
</svg>
