<?xml version="1.0"?>
<svg width="489.7" height="489.7" xmlns="http://www.w3.org/2000/svg" xmlns:svg="http://www.w3.org/2000/svg" enable-background="new 0 0 489.7 489.7" version="1.1" xml:space="preserve">
 <g class="layer">
  <title>Layer 1</title>
  <g id="svg_1">
   <path d="m438.9,10.9l-388.2,0c-28,0 -50.7,22.7 -50.7,50.7l0,277.4c0,28 22.7,50.7 50.7,50.7l11.3,0l0,81.7c0,6.6 8,9.9 12.7,5.2l86.9,-86.9l277.4,0c28,0 50.7,-22.7 50.7,-50.7l0,-277.4c0,-28 -22.7,-50.7 -50.8,-50.7zm-282.1,215.9c-14.6,0 -26.4,-11.8 -26.4,-26.4c0,-14.6 11.8,-26.4 26.4,-26.4c14.6,0 26.4,11.8 26.4,26.4c0,14.5 -11.8,26.4 -26.4,26.4zm88,0c-14.6,0 -26.4,-11.8 -26.4,-26.4c0,-14.6 11.8,-26.4 26.4,-26.4s26.4,11.8 26.4,26.4c0,14.5 -11.8,26.4 -26.4,26.4zm88,0c-14.6,0 -26.4,-11.8 -26.4,-26.4c0,-14.6 11.8,-26.4 26.4,-26.4s26.4,11.8 26.4,26.4c0,14.5 -11.8,26.4 -26.4,26.4z" fill="#ffe400" id="svg_2" stroke="#ffffff" stroke-width="0"/>
  </g>
  <g id="svg_3"/>
  <g id="svg_4"/>
  <g id="svg_5"/>
  <g id="svg_6"/>
  <g id="svg_7"/>
  <g id="svg_8"/>
  <g id="svg_9"/>
  <g id="svg_10"/>
  <g id="svg_11"/>
  <g id="svg_12"/>
  <g id="svg_13"/>
  <g id="svg_14"/>
  <g id="svg_15"/>
  <g id="svg_16"/>
  <g id="svg_17"/>
 </g>
</svg>
