<?xml version="1.0"?>
<svg width="600.619" height="600.619" xmlns="http://www.w3.org/2000/svg" xmlns:svg="http://www.w3.org/2000/svg" enable-background="new 0 0 600.619 600.619" version="1.1" xml:space="preserve">
 <g class="layer">
  <title>Layer 1</title>
  <g id="svg_1">
   <g id="svg_2">
    <path d="m502.65,25.88l-385.48,0c-25.57,0 -46.37,20.8 -46.37,46.37l0,287.9c0,25.17 20.15,45.72 45.17,46.35l0.1,43.02c0.02,6.47 1.34,12.74 3.93,18.61c2.46,5.59 5.97,10.57 10.41,14.8c8.69,8.29 20.08,12.85 32.06,12.85c8.65,0 17.12,-2.43 24.52,-7.04l131.82,-82.23l183.84,0c25.57,0 46.37,-20.8 46.37,-46.37l0,-287.9c0,-25.57 -20.8,-46.37 -46.37,-46.37l0,0.01zm12.2,334.27c0,6.74 -5.46,12.2 -12.2,12.2l-190.13,0c-2.29,0 -4.52,0.64 -6.46,1.85l-137.16,85.55c-2.06,1.28 -4.27,1.87 -6.43,1.87c-6.35,0 -12.21,-5.05 -12.23,-12.19l-0.17,-64.91c-0.02,-6.72 -5.48,-12.17 -12.2,-12.17l-20.71,0c-6.74,0 -12.2,-5.46 -12.2,-12.2l0,-287.9c0,-6.74 5.46,-12.2 12.2,-12.2l385.48,0c6.74,0 12.2,5.46 12.2,12.2l0,287.9l0.01,0z" fill="#ffe400" id="svg_3" stroke-linecap="round"/>
    <path d="m162.48,496.19c-12.08,0 -23.57,-4.6 -32.33,-12.96c-4.48,-4.27 -8.02,-9.29 -10.5,-14.93c-2.61,-5.93 -3.95,-12.24 -3.96,-18.77l-0.1,-42.63c-12.07,-0.41 -23.38,-5.4 -31.85,-14.09c-8.59,-8.8 -13.32,-20.39 -13.32,-32.65l0,-287.9c0,-25.79 20.98,-46.77 46.77,-46.77l385.48,0c25.78,0 46.77,20.98 46.77,46.77l0,287.9c0,25.78 -20.98,46.77 -46.77,46.77l-183.73,0l-131.72,82.16c-7.46,4.65 -16.01,7.11 -24.72,7.11l-0.02,-0.01zm-45.31,-469.91c-25.35,0 -45.97,20.62 -45.97,45.97l0,287.9c0,12.05 4.65,23.45 13.09,32.09c8.43,8.63 19.68,13.56 31.69,13.86l0.38,0.01l0.11,43.41c0.02,6.41 1.33,12.63 3.9,18.45c2.44,5.55 5.92,10.49 10.32,14.68c8.62,8.21 19.91,12.74 31.78,12.74c8.57,0 16.97,-2.42 24.3,-6.99l131.92,-82.28l183.95,0c25.35,0 45.97,-20.62 45.97,-45.97l0,-287.9c0,-25.35 -20.62,-45.97 -45.97,-45.97l-385.48,0l0.01,0zm45.31,435.75c-6.95,0 -12.61,-5.65 -12.63,-12.59l-0.16,-64.91c-0.02,-6.49 -5.31,-11.77 -11.8,-11.77l-20.71,0c-6.95,0 -12.6,-5.65 -12.6,-12.6l0,-287.9c0,-6.95 5.65,-12.6 12.6,-12.6l385.48,0c6.95,0 12.6,5.65 12.6,12.6l0,287.9c0,6.95 -5.65,12.6 -12.6,12.6l-190.13,0c-2.22,0 -4.37,0.61 -6.25,1.79l-137.15,85.55c-2.03,1.27 -4.32,1.93 -6.64,1.93l-0.01,0zm-45.31,-401.58c-6.51,0 -11.8,5.29 -11.8,11.8l0,287.9c0,6.51 5.3,11.8 11.8,11.8l20.71,0c6.92,0 12.58,5.64 12.6,12.57l0.16,64.91c0.02,6.5 5.33,11.79 11.84,11.79c2.17,0 4.32,-0.62 6.22,-1.8l137.15,-85.56c2,-1.24 4.31,-1.91 6.67,-1.91l190.13,0c6.51,0 11.8,-5.3 11.8,-11.8l0,-287.9c0,-6.51 -5.3,-11.8 -11.8,-11.8l-385.48,0z" fill="#ffe400" id="svg_4" stroke-linecap="round"/>
   </g>
   <g id="svg_5">
    <path d="m412.19,108.96l-204.58,0c-27.14,0 -49.22,22.08 -49.22,49.23c0,27.14 22.08,49.22 49.22,49.22l204.58,0c27.15,0 49.23,-22.08 49.23,-49.22c0,-27.15 -22.08,-49.23 -49.23,-49.23zm0,64.29l-204.58,0c-8.31,0 -15.06,-6.75 -15.06,-15.06c0,-8.32 6.75,-15.07 15.06,-15.07l204.58,0c8.32,0 15.07,6.75 15.07,15.07c0,8.31 -6.75,15.06 -15.07,15.06z" fill="#ffe400" id="svg_6" stroke-linecap="round"/>
    <path d="m412.19,207.82l-204.58,0c-27.36,0 -49.62,-22.27 -49.62,-49.62s22.26,-49.63 49.62,-49.63l204.58,0c27.36,0 49.63,22.27 49.63,49.63s-22.27,49.62 -49.63,49.62zm-204.58,-98.46c-26.92,0 -48.83,21.91 -48.83,48.83s21.91,48.83 48.83,48.83l204.58,0c26.93,0 48.83,-21.9 48.83,-48.83s-21.91,-48.83 -48.83,-48.83l-204.58,0zm204.58,64.29l-204.58,0c-8.52,0 -15.46,-6.94 -15.46,-15.46s6.94,-15.46 15.46,-15.46l204.58,0c8.53,0 15.46,6.94 15.46,15.46s-6.94,15.46 -15.46,15.46zm-204.58,-30.12c-8.08,0 -14.66,6.58 -14.66,14.67s6.58,14.66 14.66,14.66l204.58,0c8.09,0 14.67,-6.58 14.67,-14.66s-6.58,-14.67 -14.67,-14.67l-204.58,0z" fill="#ffe400" id="svg_7" stroke-linecap="round"/>
   </g>
   <g id="svg_8">
    <path d="m325.11,224.72l-117.49,0c-27.14,0 -49.22,22.08 -49.22,49.22s22.08,49.22 49.22,49.22l117.49,0c27.14,0 49.22,-22.08 49.22,-49.22c0,-27.15 -22.08,-49.22 -49.22,-49.22zm0,64.28l-117.49,0c-8.31,0 -15.06,-6.74 -15.06,-15.06c0,-8.32 6.75,-15.06 15.06,-15.06l117.49,0c8.32,0 15.06,6.74 15.06,15.06s-6.74,15.06 -15.06,15.06z" fill="#ffe400" id="svg_9" stroke-linecap="round"/>
    <path d="m325.11,323.57l-117.49,0c-27.36,0 -49.62,-22.26 -49.62,-49.62s22.26,-49.62 49.62,-49.62l117.49,0c27.36,0 49.62,22.26 49.62,49.62s-22.26,49.62 -49.62,49.62zm-117.49,-98.45c-26.92,0 -48.83,21.9 -48.83,48.83c0,26.93 21.91,48.83 48.83,48.83l117.49,0c26.92,0 48.83,-21.9 48.83,-48.83c0,-26.93 -21.9,-48.83 -48.83,-48.83l-117.49,0zm117.49,64.28l-117.49,0c-8.52,0 -15.46,-6.93 -15.46,-15.46s6.94,-15.46 15.46,-15.46l117.49,0c8.52,0 15.46,6.93 15.46,15.46s-6.93,15.46 -15.46,15.46zm-117.49,-30.12c-8.08,0 -14.66,6.57 -14.66,14.66s6.58,14.66 14.66,14.66l117.49,0c8.08,0 14.66,-6.57 14.66,-14.66s-6.58,-14.66 -14.66,-14.66l-117.49,0z" fill="#ffe400" id="svg_10" stroke-linecap="round"/>
   </g>
  </g>
  <g id="svg_11"/>
  <g id="svg_12"/>
  <g id="svg_13"/>
  <g id="svg_14"/>
  <g id="svg_15"/>
  <g id="svg_16"/>
  <g id="svg_17"/>
  <g id="svg_18"/>
  <g id="svg_19"/>
  <g id="svg_20"/>
  <g id="svg_21"/>
  <g id="svg_22"/>
  <g id="svg_23"/>
  <g id="svg_24"/>
  <g id="svg_25"/>
  <text fill="#ffe400" font-family="Roboto" font-size="72" id="svg_26" stroke-linecap="round" text-anchor="middle" x="300.27" xml:space="preserve" y="579.2">СООБЩЕНИЕ</text>
 </g>
</svg>