<?xml version="1.0"?>
<svg width="489.3" height="489.3" xmlns="http://www.w3.org/2000/svg" xmlns:svg="http://www.w3.org/2000/svg" enable-background="new 0 0 489.3 489.3" version="1.1" xml:space="preserve">
 <g class="layer">
  <title>Layer 1</title>
  <g id="svg_1">
   <g id="svg_2">
    <path d="m79.55,229.68c-10.2,10.2 -10.2,26.8 0,37.1c10.2,10.2 26.8,10.2 37.1,0c70.6,-70.6 185.5,-70.6 256.1,0c5.1,5.1 11.8,7.7 18.5,7.7s13.4,-2.6 18.5,-7.7c10.2,-10.2 10.2,-26.8 0,-37.1c-91,-91.11 -239.2,-91.11 -330.2,0z" fill="#ffff00" id="svg_3" stroke="#e5e5e5" stroke-width="8"/>
    <path d="m150.35,300.48c-10.2,10.2 -10.2,26.8 0,37.1c10.2,10.2 26.8,10.2 37.1,0c31.5,-31.6 82.9,-31.6 114.4,0c5.1,5.1 11.8,7.7 18.5,7.7s13.4,-2.6 18.5,-7.7c10.2,-10.2 10.2,-26.8 0,-37c-51.9,-52.11 -136.5,-52.11 -188.5,-0.1z" fill="#ffff00" id="svg_4" stroke="#e5e5e5" stroke-width="8"/>
    <circle cx="244.65" cy="394.68" fill="#ffff00" id="svg_5" r="34.9" stroke="#e5e5e5" stroke-width="8"/>
    <path d="m481.65,157.68c-130.7,-130.6 -343.3,-130.6 -474,0c-10.2,10.2 -10.2,26.8 0,37.1c10.2,10.19 26.8,10.19 37.1,0c110.2,-110.3 289.6,-110.3 399.9,0c5.1,5.1 11.8,7.69 18.5,7.69s13.4,-2.59 18.5,-7.69c10.2,-10.21 10.2,-26.81 0,-37.1z" fill="#ffff00" id="svg_6" stroke="#e5e5e5" stroke-width="8"/>
   </g>
  </g>
  <g id="svg_7"/>
  <g id="svg_8"/>
  <g id="svg_9"/>
  <g id="svg_10"/>
  <g id="svg_11"/>
  <g id="svg_12"/>
  <g id="svg_13"/>
  <g id="svg_14"/>
  <g id="svg_15"/>
  <g id="svg_16"/>
  <g id="svg_17"/>
  <g id="svg_18"/>
  <g id="svg_19"/>
  <g id="svg_20"/>
  <g id="svg_21"/>
 </g>
</svg>