<?xml version="1.0"?>
<svg width="512" height="512" xmlns="http://www.w3.org/2000/svg" xmlns:svg="http://www.w3.org/2000/svg" enable-background="new 0 0 442 442" version="1.1" xml:space="preserve">
 <g class="layer">
  <title>Layer 1</title>
  <g id="svg_1">
   <path d="m270.56,138.33c-3.67,3.66 -3.67,9.62 0,13.29s9.62,3.67 13.29,0l7.76,-7.76c2.79,-2.79 3.54,-7.03 1.87,-10.61c-5.18,-11.13 -7.8,-22.64 -7.8,-34.21c0,-23.57 10.25,-45.76 27.56,-61.1l0.03,61.51c0,3.08 1.51,5.97 4.05,7.72l44.58,30.87c3.22,2.23 7.48,2.24 10.7,0.01l44.6,-30.86c2.54,-1.76 4.05,-4.64 4.05,-7.73l-0.01,-61.5c17.3,15.32 27.56,37.49 27.57,61.04c0,21.79 -8.49,42.29 -23.9,57.69c-15.39,15.4 -35.85,23.88 -57.62,23.88c-0.02,0 -0.05,0 -0.07,0c-7.49,0 -22.19,-3.63 -27.22,-5.03c-3.27,-0.91 -6.77,0.02 -9.16,2.41l-28.57,28.58c-3.67,3.66 -3.67,9.61 0,13.29c1.83,1.83 4.24,2.75 6.64,2.75s4.81,-0.92 6.64,-2.75l24.76,-24.76c6.91,1.7 18.77,4.31 26.89,4.31c0.03,0 0.05,0 0.08,0c26.78,0 51.97,-10.43 70.92,-29.38c18.95,-18.95 29.39,-44.16 29.39,-70.97c-0.01,-36.11 -19.61,-69.6 -51.15,-87.4c-2.9,-1.64 -6.46,-1.62 -9.35,0.07c-2.88,1.68 -4.66,4.77 -4.66,8.12l0.01,74.75l-35.2,24.36l-35.19,-24.37l-0.04,-74.77c0,-3.34 -1.78,-6.43 -4.66,-8.11c-2.88,-1.68 -6.45,-1.71 -9.36,-0.07c-31.53,17.82 -51.12,51.32 -51.12,87.45c0,12.21 2.33,24.3 6.93,36.03l-3.26,3.27z" fill="#ffe400" id="svg_2"/>
   <path d="m245.68,263.11l-130.35,130.35c-4.91,4.91 -11.42,7.6 -18.34,7.61c0,0 -0.01,0 -0.01,0c-6.93,0 -13.44,-2.7 -18.33,-7.6c-4.9,-4.9 -7.59,-11.42 -7.58,-18.36c0.01,-6.92 2.71,-13.41 7.61,-18.3l112.11,-112.13c3.67,-3.67 3.67,-9.62 0,-13.29c-3.66,-3.67 -9.61,-3.67 -13.29,0l-112.1,112.11c-8.46,8.42 -13.11,19.64 -13.13,31.58c-0.01,11.96 4.63,23.21 13.08,31.67c8.46,8.46 19.69,13.11 31.63,13.11c0.01,0 0.02,0 0.02,0c11.95,-0.01 23.18,-4.66 31.62,-13.12l130.35,-130.35c3.67,-3.66 3.67,-9.62 0,-13.29c-3.67,-3.67 -9.62,-3.67 -13.29,0z" fill="#ffe400" id="svg_3"/>
   <path d="m96.84,363.7c-3.1,0 -6,1.21 -8.16,3.37c-4.51,4.48 -4.54,11.82 -0.05,16.34c0.01,0.02 0.02,0.03 0.04,0.04c2.25,2.25 5.2,3.37 8.16,3.37c2.97,0 5.94,-1.14 8.2,-3.39c4.5,-4.52 4.49,-11.86 -0.01,-16.34c-2.18,-2.19 -5.08,-3.39 -8.18,-3.39c0,0 0,0 0,0z" fill="#ffe400" id="svg_4"/>
   <path d="m404.06,316.07c-0.98,-0.98 -2.15,-1.72 -3.44,-2.19l-26.95,-9.77l-97.34,-97.34l15.74,-15.73c3.66,-3.67 3.66,-9.62 0,-13.3c-2.79,-2.78 -6.89,-3.45 -10.31,-2.01l-147.23,-147.21c-8.9,-8.94 -20.76,-13.87 -33.39,-13.88c-0.02,0 -0.04,0 -0.06,0c-12.63,0 -24.5,4.91 -33.43,13.83c-8.94,8.95 -13.86,20.82 -13.85,33.46c0,12.63 4.93,24.51 13.86,33.43l147.24,147.23c-1.45,3.41 -0.77,7.52 2.01,10.3c3.67,3.66 9.62,3.67 13.29,0l15.73,-15.73l97.34,97.34l9.77,26.95c0.47,1.29 1.21,2.46 2.19,3.44l54.61,54.61c1.84,1.83 4.25,2.75 6.64,2.75s4.81,-0.92 6.65,-2.75l35.53,-35.54c1.77,-1.76 2.75,-4.15 2.75,-6.64s-0.99,-4.88 -2.75,-6.64l-54.61,-54.61zm-147.66,-115.95c-0.02,0.02 -0.04,0.04 -0.06,0.06l-28.64,28.64l-146.75,-146.74c-5.38,-5.38 -8.35,-12.54 -8.35,-20.16c-0.01,-7.61 2.96,-14.77 8.34,-20.16c5.38,-5.37 12.54,-8.33 20.15,-8.33c0.01,0 0.02,0 0.03,0c7.61,0.01 14.74,2.97 20.12,8.36l146.75,146.74l-11.53,11.52c-0.02,0.02 -0.04,0.05 -0.06,0.07zm160.09,199.45l-46.49,-46.49l-9.77,-26.95c-0.46,-1.29 -1.21,-2.47 -2.19,-3.44l-98.82,-98.82l3.82,-3.82l98.82,98.82c0.98,0.98 2.15,1.72 3.44,2.19l26.95,9.77l46.49,46.49l-22.25,22.25z" fill="#ffe400" id="svg_5"/>
   <path d="m107.69,55.22c-3.66,-3.66 -9.62,-3.66 -13.29,0c-3.67,3.67 -3.67,9.62 0,13.3l129.63,129.63c1.83,1.83 4.24,2.74 6.64,2.74s4.81,-0.91 6.64,-2.74c3.67,-3.67 3.67,-9.62 0,-13.3l-129.63,-129.63z" fill="#ffe400" id="svg_6"/>
  </g>
  <g id="svg_7"/>
  <g id="svg_8"/>
  <g id="svg_9"/>
  <g id="svg_10"/>
  <g id="svg_11"/>
  <g id="svg_12"/>
  <g id="svg_13"/>
  <g id="svg_14"/>
  <g id="svg_15"/>
  <g id="svg_16"/>
  <g id="svg_17"/>
  <g id="svg_18"/>
  <g id="svg_19"/>
  <g id="svg_20"/>
  <g id="svg_21"/>
  <text fill="#ffe400" font-family="Roboto" font-size="72" id="svg_22" stroke-linecap="round" text-anchor="middle" x="250.53" xml:space="preserve" y="490.67">ДИАГНОС.</text>
 </g>
</svg>