<?xml version="1.0"?>
<svg width="512" height="512" xmlns="http://www.w3.org/2000/svg" xmlns:svg="http://www.w3.org/2000/svg" enable-background="new 0 0 57 57" version="1.1" xml:space="preserve">
 <g class="layer">
  <title>Layer 1</title>
  <g id="svg_24">
   <g id="svg_1">
    <path d="m414.35,263.95l0,-16.9l7.16,0c3.94,0 7.16,-3.22 7.16,-7.16s-3.22,-7.16 -7.16,-7.16l-7.16,0l-7.16,0l-100.28,0l-7.16,0l-7.16,0c-3.94,0 -7.16,3.22 -7.16,7.16s3.22,7.16 7.16,7.16l7.16,0l0,16.9c0,25.29 13.18,48.35 34.6,61.89c-21.35,13.54 -34.6,36.6 -34.6,61.89l0,16.9l-7.16,0c-3.94,0 -7.16,3.22 -7.16,7.16s3.22,7.16 7.16,7.16l7.16,0l7.16,0l100.28,0l7.16,0l7.16,0c3.94,0 7.16,-3.22 7.16,-7.16s-3.22,-7.16 -7.16,-7.16l-7.16,0l0,-16.9c0,-25.29 -13.18,-48.35 -34.6,-61.89c21.42,-13.54 34.6,-36.53 34.6,-61.89zm-14.33,123.78l0,16.9l-85.96,0l0,-16.9c0,-23.78 14.54,-45.13 37.25,-54.73l11.46,0c22.71,9.6 37.25,30.94 37.25,54.73zm-37.25,-69.05l-11.46,0c-22.71,-9.6 -37.25,-30.94 -37.25,-54.73l0,-16.9l85.96,0l0,16.9c0,23.78 -14.54,45.13 -37.25,54.73z" fill="#ffe400" id="svg_2"/>
    <path d="m256.77,110.95l128.93,0c3.94,0 7.16,-3.22 7.16,-7.16s-3.22,-7.16 -7.16,-7.16l-128.93,0c-3.94,0 -7.16,3.22 -7.16,7.16s3.22,7.16 7.16,7.16z" fill="#ffe400" id="svg_3"/>
    <path d="m256.77,211.23l128.93,0c3.94,0 7.16,-3.22 7.16,-7.16s-3.22,-7.16 -7.16,-7.16l-128.93,0c-3.94,0 -7.16,3.22 -7.16,7.16s3.22,7.16 7.16,7.16z" fill="#ffe400" id="svg_4"/>
    <path d="m210.78,62.53c-3.01,-2.58 -7.52,-2.22 -10.1,0.79l-44.77,52.22l-27.36,-20.56c-3.15,-2.36 -7.66,-1.72 -10.03,1.43c-2.36,3.15 -1.72,7.66 1.43,10.03l32.73,24.57c1.29,0.93 2.79,1.43 4.3,1.43c2.01,0 4.01,-0.86 5.44,-2.51l49.14,-57.3c2.58,-3.01 2.22,-7.52 -0.79,-10.1l0.01,0z" fill="#ffe400" id="svg_5"/>
    <path d="m210.78,162.81c-3.01,-2.58 -7.52,-2.22 -10.1,0.79l-44.77,52.22l-27.36,-20.56c-3.15,-2.36 -7.66,-1.72 -10.03,1.43c-2.36,3.15 -1.72,7.66 1.43,10.03l32.73,24.57c1.29,0.93 2.79,1.43 4.3,1.43c2.01,0 4.01,-0.86 5.44,-2.51l49.14,-57.3c2.58,-3.01 2.22,-7.52 -0.79,-10.1l0.01,0z" fill="#ffe400" id="svg_6"/>
    <path d="m200.68,271.04l-44.77,52.22l-27.36,-20.56c-3.15,-2.36 -7.66,-1.72 -10.03,1.43c-2.36,3.15 -1.72,7.66 1.43,10.03l32.73,24.57c1.29,0.93 2.79,1.43 4.3,1.43c2.01,0 4.01,-0.86 5.44,-2.51l49.14,-57.3c2.58,-3.01 2.22,-7.52 -0.79,-10.1c-3.01,-2.58 -7.52,-2.22 -10.1,0.79l0.01,0z" fill="#ffe400" id="svg_7"/>
    <path d="m362.92,10.67l-212.31,0c-48.14,0 -87.24,39.11 -87.24,87.24l0,212.31c0,48.14 39.11,87.24 87.24,87.24l98.99,0c3.94,0 7.16,-3.22 7.16,-7.16s-3.22,-7.16 -7.16,-7.16l-98.99,0c-40.26,0 -72.92,-32.66 -72.92,-72.92l0,-212.31c0,-40.26 32.66,-72.92 72.92,-72.92l212.31,0c40.26,0 72.92,32.66 72.92,72.92l0,106.16c0,3.94 3.22,7.16 7.16,7.16s7.16,-3.22 7.16,-7.16l0,-106.16c0,-48.14 -39.11,-87.24 -87.24,-87.24z" fill="#ffe400" id="svg_8"/>
   </g>
   <g id="svg_9"/>
   <g id="svg_10"/>
   <g id="svg_11"/>
   <g id="svg_12"/>
   <g id="svg_13"/>
   <g id="svg_14"/>
   <g id="svg_15"/>
   <g id="svg_16"/>
   <g id="svg_17"/>
   <g id="svg_18"/>
   <g id="svg_19"/>
   <g id="svg_20"/>
   <g id="svg_21"/>
   <g id="svg_22"/>
   <g id="svg_23"/>
  </g>
  <text fill="#ffe400" font-family="Roboto" font-size="72" id="svg_25" text-anchor="middle" x="245.4" xml:space="preserve" y="492.8">СМЕНА</text>
 </g>
</svg>