<?xml version="1.0"?>
<svg width="490" height="490" xmlns="http://www.w3.org/2000/svg" xmlns:svg="http://www.w3.org/2000/svg" enable-background="new 0 0 490 490" version="1.1" xml:space="preserve">
 <g class="layer">
  <title>Layer 1</title>
  <g id="svg_1">
   <g id="svg_2">
    <path d="m385.3,49.8l-72.5,0c-9.3,-28.9 -36.3,-49.8 -68.3,-49.8s-59,20.9 -68.3,49.8l-71.5,0c-23.2,0 -42,18.8 -42,42l0,356.2c0,23.2 18.8,42 42,42l280.6,0c23.2,0 42,-18.8 42,-42l0,-356.2c0,-23.2 -18.8,-42 -42,-42zm-140.8,-3.1c13.8,0 25,11.2 25,25s-11.2,25 -25,25s-25,-11.2 -25,-25s11.2,-25 25,-25zm109.6,377l-218.2,0c-6.1,0 -11,-4.9 -11,-11l0,-266.3c0,-6.1 4.9,-11 11,-11l218.2,0c6.1,0 11,4.9 11,11l0,266.3c0,6.1 -4.9,11 -11,11z" fill="#ffff00" id="svg_3" stroke="#ffffff"/>
    <rect fill="#ffff00" height="29.7" id="svg_4" stroke="#ffffff" width="174.8" x="157.6" y="167.6"/>
    <rect fill="#ffff00" height="29.7" id="svg_5" stroke="#ffffff" width="174.8" x="157.6" y="218.8"/>
    <rect fill="#ffff00" height="29.7" id="svg_6" stroke="#ffffff" width="174.8" x="157.6" y="270"/>
    <rect fill="#ffff00" height="29.7" id="svg_7" stroke="#ffffff" width="87.3" x="157.6" y="321.2"/>
   </g>
  </g>
  <g id="svg_8"/>
  <g id="svg_9"/>
  <g id="svg_10"/>
  <g id="svg_11"/>
  <g id="svg_12"/>
  <g id="svg_13"/>
  <g id="svg_14"/>
  <g id="svg_15"/>
  <g id="svg_16"/>
  <g id="svg_17"/>
  <g id="svg_18"/>
  <g id="svg_19"/>
  <g id="svg_20"/>
  <g id="svg_21"/>
  <g id="svg_22"/>
 </g>
</svg>