<?xml version="1.0"?>
<svg width="512" height="512" xmlns="http://www.w3.org/2000/svg" xmlns:svg="http://www.w3.org/2000/svg" enable-background="new 0 0 512 512" version="1.1" xml:space="preserve">
 <g class="layer">
  <title>Layer 1</title>
  <g id="svg_1">
   <g id="svg_2">
    <path d="m256,0c-141.16,0 -256,114.84 -256,256s114.84,256 256,256s256,-114.84 256,-256s-114.84,-256 -256,-256zm171.54,409.43l-35.78,-35.77l-18.09,18.1l35.77,35.77c-40.77,36.5 -94.42,58.87 -153.44,58.87s-112.67,-22.37 -153.44,-58.86l35.77,-35.78l-18.1,-18.09l-35.77,35.76c-33.81,-37.78 -55.24,-86.68 -58.21,-140.63l50.55,0l0,-25.6l-50.55,0c2.97,-53.95 24.4,-102.85 58.22,-140.64l35.77,35.77l18.1,-18.1l-35.77,-35.77c37.78,-33.82 86.68,-55.24 140.63,-58.21l0,50.55l25.6,0l0,-50.55c53.95,2.97 102.85,24.4 140.64,58.22l-35.77,35.77l18.09,18.1l35.78,-35.77c33.81,37.78 55.24,86.68 58.22,140.64l-50.56,0l0,25.6l50.55,0c-2.97,53.94 -24.39,102.84 -58.21,140.62z" fill="#ffe400" id="svg_3"/>
   </g>
  </g>
  <g id="svg_4">
   <g id="svg_5">
    <path d="m268.8,271.15l0,-117.55l-25.6,0l0,117.55c-14.86,5.3 -25.6,19.38 -25.6,36.05c0,21.17 17.23,38.4 38.4,38.4s38.4,-17.23 38.4,-38.4c0,-16.67 -10.73,-30.74 -25.6,-36.05zm-12.8,48.85c-7.07,0 -12.8,-5.73 -12.8,-12.8s5.73,-12.8 12.8,-12.8c7.07,0 12.8,5.73 12.8,12.8s-5.73,12.8 -12.8,12.8z" fill="#ffe400" id="svg_6"/>
   </g>
  </g>
  <g id="svg_7">
   <g id="svg_8">
    <rect fill="#ffe400" height="25.6" id="svg_9" width="128" x="192" y="409.6"/>
   </g>
  </g>
  <g id="svg_10"/>
  <g id="svg_11"/>
  <g id="svg_12"/>
  <g id="svg_13"/>
  <g id="svg_14"/>
  <g id="svg_15"/>
  <g id="svg_16"/>
  <g id="svg_17"/>
  <g id="svg_18"/>
  <g id="svg_19"/>
  <g id="svg_20"/>
  <g id="svg_21"/>
  <g id="svg_22"/>
  <g id="svg_23"/>
  <g id="svg_24"/>
 </g>
</svg>