<?xml version="1.0"?>
<svg width="512" height="512" xmlns="http://www.w3.org/2000/svg" xmlns:svg="http://www.w3.org/2000/svg" enable-background="new 0 0 512 512" version="1.1" xml:space="preserve">
 <g class="layer">
  <title>Layer 1</title>
  <g id="svg_70">
   <g id="svg_1">
    <g id="svg_2">
     <path d="m256.02,50.95c-113.08,0 -205.07,91.98 -205.07,205.07s91.98,205.07 205.07,205.07s205.07,-91.98 205.07,-205.07s-91.98,-205.07 -205.07,-205.07zm0,389.73c-101.82,0 -184.66,-82.85 -184.66,-184.66s82.85,-184.66 184.66,-184.66s184.66,82.85 184.66,184.66s-82.85,184.66 -184.66,184.66z" fill="#ffe400" id="svg_3"/>
    </g>
   </g>
   <g id="svg_4">
    <g id="svg_5">
     <path d="m256.02,3c-5.63,0 -10.2,4.57 -10.2,10.2l0,15.31c0,5.63 4.57,10.2 10.2,10.2s10.2,-4.57 10.2,-10.2l0,-15.31c0,-5.63 -4.57,-10.2 -10.2,-10.2z" fill="#ffe400" id="svg_6"/>
    </g>
   </g>
   <g id="svg_7">
    <g id="svg_8">
     <path d="m178.38,41.92l-5.85,-14.14c-2.15,-5.21 -8.13,-7.68 -13.34,-5.53c-5.2,2.15 -7.67,8.13 -5.52,13.33l5.85,14.14c1.63,3.93 5.43,6.3 9.43,6.3c1.31,0 2.63,-0.25 3.9,-0.77c5.21,-2.15 7.68,-8.13 5.52,-13.34l0,0.01z" fill="#ffe400" id="svg_9"/>
    </g>
   </g>
   <g id="svg_10">
    <g id="svg_11">
     <path d="m102.1,87.67l-18.48,-18.48c-3.98,-3.98 -10.45,-3.98 -14.44,0c-3.98,3.98 -3.98,10.45 0,14.44l18.48,18.48c1.99,1.99 4.6,2.99 7.21,2.99c2.61,0 5.22,-1 7.21,-2.99c3.98,-3.98 3.98,-10.45 0,-14.44l0.01,0z" fill="#ffe400" id="svg_12"/>
    </g>
   </g>
   <g id="svg_13">
    <g id="svg_14">
     <path d="m49.73,159.53l-14.14,-5.85c-5.2,-2.15 -11.17,0.32 -13.33,5.52c-2.16,5.21 0.32,11.17 5.52,13.34l14.14,5.85c1.27,0.54 2.6,0.78 3.89,0.78c4.02,0 7.81,-2.37 9.43,-6.3c2.16,-5.21 -0.31,-11.17 -5.52,-13.34z" fill="#ffe400" id="svg_15"/>
    </g>
   </g>
   <g id="svg_16">
    <g id="svg_17">
     <path d="m28.51,245.82l-15.31,0c-5.63,0 -10.2,4.57 -10.2,10.2s4.57,10.2 10.2,10.2l15.31,0c5.63,0 10.2,-4.57 10.2,-10.2s-4.57,-10.2 -10.2,-10.2z" fill="#ffe400" id="svg_18"/>
    </g>
   </g>
   <g id="svg_19">
    <g id="svg_20">
     <path d="m55.26,339.18c-2.16,-5.21 -8.14,-7.68 -13.34,-5.53l-14.14,5.86c-5.2,2.15 -7.67,8.13 -5.52,13.34c1.63,3.93 5.43,6.3 9.43,6.3c1.29,0 2.62,-0.25 3.89,-0.78l14.14,-5.85c5.21,-2.15 7.68,-8.13 5.53,-13.34z" fill="#ffe400" id="svg_21"/>
    </g>
   </g>
   <g id="svg_22">
    <g id="svg_23">
     <path d="m102.36,409.68c-3.98,-3.98 -10.45,-3.98 -14.44,0l-10.82,10.82c-3.98,3.98 -3.98,10.45 0,14.44c1.99,1.99 4.6,2.99 7.21,2.99c2.61,0 5.22,-0.98 7.21,-2.99l10.82,-10.82c3.98,-3.98 3.98,-10.45 0,-14.44l0.01,0z" fill="#ffe400" id="svg_24"/>
    </g>
   </g>
   <g id="svg_25">
    <g id="svg_26">
     <path d="m172.69,457.19c-5.21,-2.15 -11.17,0.32 -13.34,5.53l-10.82,26.1c-2.15,5.2 0.32,11.17 5.53,13.33c1.27,0.54 2.6,0.78 3.9,0.78c4.01,0 7.8,-2.37 9.43,-6.3l10.82,-26.11c2.15,-5.2 -0.32,-11.17 -5.53,-13.33z" fill="#ffe400" id="svg_27"/>
    </g>
   </g>
   <g id="svg_28">
    <g id="svg_29">
     <path d="m256.02,473.33c-5.63,0 -10.2,4.57 -10.2,10.2l0,15.31c0,5.63 4.57,10.2 10.2,10.2s10.2,-4.57 10.2,-10.2l0,-15.31c0,-5.63 -4.57,-10.2 -10.2,-10.2z" fill="#ffe400" id="svg_30"/>
    </g>
   </g>
   <g id="svg_31">
    <g id="svg_32">
     <path d="m358.36,476.45l-5.85,-14.14c-2.15,-5.21 -8.13,-7.68 -13.34,-5.53c-5.2,2.16 -7.68,8.13 -5.52,13.34l5.85,14.14c1.63,3.93 5.43,6.3 9.43,6.3c1.31,0 2.63,-0.25 3.9,-0.78c5.2,-2.15 7.67,-8.13 5.52,-13.33z" fill="#ffe400" id="svg_33"/>
    </g>
   </g>
   <g id="svg_34">
    <g id="svg_35">
     <path d="m434.94,420.5l-10.82,-10.82c-3.98,-3.98 -10.45,-3.98 -14.44,0c-3.98,3.98 -3.98,10.45 0,14.44l10.82,10.82c1.99,1.99 4.6,2.99 7.21,2.99s5.22,-0.98 7.21,-2.99c3.98,-3.98 3.98,-10.45 0,-14.44l0.01,0z" fill="#ffe400" id="svg_36"/>
    </g>
   </g>
   <g id="svg_37">
    <g id="svg_38">
     <path d="m496.48,344.58l-25.96,-10.75c-5.21,-2.15 -11.17,0.32 -13.34,5.53c-2.15,5.2 0.32,11.17 5.53,13.33l25.96,10.75c1.27,0.54 2.6,0.78 3.9,0.78c4.01,0 7.8,-2.37 9.43,-6.3c2.15,-5.21 -0.32,-11.17 -5.53,-13.34z" fill="#ffe400" id="svg_39"/>
    </g>
   </g>
   <g id="svg_40">
    <g id="svg_41">
     <path d="m498.84,245.82l-15.31,0c-5.63,0 -10.2,4.57 -10.2,10.2s4.57,10.2 10.2,10.2l15.31,0c5.63,0 10.2,-4.57 10.2,-10.2s-4.57,-10.2 -10.2,-10.2z" fill="#ffe400" id="svg_42"/>
    </g>
   </g>
   <g id="svg_43">
    <g id="svg_44">
     <path d="m489.77,159.19c-2.15,-5.2 -8.13,-7.68 -13.33,-5.52l-14.14,5.85c-5.21,2.15 -7.68,8.13 -5.53,13.34c1.63,3.93 5.44,6.3 9.44,6.3c1.29,0 2.62,-0.25 3.89,-0.78l14.14,-5.85c5.2,-2.15 7.67,-8.13 5.52,-13.34z" fill="#ffe400" id="svg_45"/>
    </g>
   </g>
   <g id="svg_46">
    <g id="svg_47">
     <path d="m464.68,47.36c-3.98,-3.98 -10.45,-3.98 -14.44,0l-3.51,3.51c-3.98,3.98 -3.98,10.45 0,14.44c1.99,1.99 4.6,2.99 7.21,2.99s5.22,-0.98 7.21,-2.99l3.51,-3.51c3.98,-3.98 3.98,-10.45 0,-14.44l0.01,0z" fill="#ffe400" id="svg_48"/>
    </g>
   </g>
   <g id="svg_49">
    <g id="svg_50">
     <path d="m438.72,73.32c-3.98,-3.98 -10.45,-3.98 -14.44,0l-13.75,13.75c-3.98,3.98 -3.98,10.45 0,14.44c1.99,1.99 4.6,2.99 7.21,2.99s5.22,-1 7.21,-2.99l13.75,-13.75c3.98,-3.98 3.98,-10.44 0,-14.44l0.01,0z" fill="#ffe400" id="svg_51"/>
    </g>
   </g>
   <g id="svg_52">
    <g id="svg_53">
     <path d="m352.85,22.27c-5.2,-2.15 -11.17,0.32 -13.33,5.52l-5.86,14.14c-2.15,5.21 0.32,11.17 5.53,13.34c1.27,0.53 2.6,0.78 3.9,0.78c4.01,0 7.8,-2.37 9.43,-6.31l5.85,-14.14c2.15,-5.21 -0.32,-11.17 -5.53,-13.34l0,0.01z" fill="#ffe400" id="svg_54"/>
    </g>
   </g>
   <g id="svg_55"/>
   <g id="svg_56"/>
   <g id="svg_57"/>
   <g id="svg_58"/>
   <g id="svg_59"/>
   <g id="svg_60"/>
   <g id="svg_61"/>
   <g id="svg_62"/>
   <g id="svg_63"/>
   <g id="svg_64"/>
   <g id="svg_65"/>
   <g id="svg_66"/>
   <g id="svg_67"/>
   <g id="svg_68"/>
   <g id="svg_69"/>
  </g>
 </g>
</svg>