<?xml version="1.0"?>
<svg width="512" height="512" xmlns="http://www.w3.org/2000/svg" xmlns:svg="http://www.w3.org/2000/svg" enable-background="new 0 0 913.9 913.9" version="1.1" xml:space="preserve">
 <g class="layer">
  <title>Layer 1</title>
  <g id="svg_1">
   <path d="m471.49,143.22c-1.53,-37.81 -17.7,-72.82 -45.53,-98.52c-13.15,-12.11 -28.11,-21.53 -44.49,-28c-16.38,-6.41 -33.7,-9.7 -51.51,-9.7c-1.92,0 -3.89,0.05 -5.81,0.11c-37.81,1.53 -72.77,17.7 -98.52,45.59l-159.4,172c-5.1,5.53 -4.82,14.14 0.66,19.29l11.07,10.41c5.53,5.21 14.25,4.93 19.45,-0.66l159.51,-172.11c18.19,-19.73 44.88,-31.07 73.15,-31.07c25.42,0 49.26,9.04 67.01,25.48c19.45,17.97 30.79,42.41 31.84,68.93c1.04,26.47 -8.16,51.67 -26.03,71.01l0,0l0,0l-216.66,231.29c-10.85,11.73 -26.69,18.47 -43.51,18.47c-15.12,0 -29.32,-5.37 -39.89,-15.18c-11.56,-10.68 -18.25,-25.21 -18.96,-40.99c-0.66,-15.73 4.82,-30.74 15.4,-42.19l0,0l0,0c0,0 201.64,-215.18 201.97,-215.45c17.64,-18.3 45.32,8.33 27.67,26.63c-29.97,31.07 -106.96,114.19 -144.66,155.01c-5.1,5.53 -4.82,14.14 0.66,19.29l11.07,10.41c5.53,5.21 14.25,4.93 19.45,-0.66l145.15,-156.49c22.96,-24.88 21.42,-63.84 -3.51,-86.85c-11.34,-10.47 -26.19,-16.27 -41.7,-16.27c-8.38,0 -16.49,1.64 -24.16,4.93c-7.89,3.34 -14.9,8.27 -20.71,14.63l0,0l0,0l-202.36,215.78c-37.97,41.15 -35.34,105.53 5.81,143.56c18.08,16.71 42.47,25.86 68.66,25.86c29.1,0 56.33,-11.45 74.74,-31.4l0,0l0,0l216.66,-231.29c25.64,-27.84 38.96,-64 37.48,-101.86z" fill="#ffe400" id="svg_2"/>
  </g>
  <g id="svg_3"/>
  <g id="svg_4"/>
  <g id="svg_5"/>
  <g id="svg_6"/>
  <g id="svg_7"/>
  <g id="svg_8"/>
  <g id="svg_9"/>
  <g id="svg_10"/>
  <g id="svg_11"/>
  <g id="svg_12"/>
  <g id="svg_13"/>
  <g id="svg_14"/>
  <g id="svg_15"/>
  <g id="svg_16"/>
  <g id="svg_17"/>
 </g>
</svg>