<?xml version="1.0"?>
<svg width="900" height="900" xmlns="http://www.w3.org/2000/svg" xmlns:svg="http://www.w3.org/2000/svg" preserveAspectRatio="xMidYMid meet" version="1.0">
 <metadata>Created by potrace 1.10, written by Peter Selinger 2001-2011</metadata>
 <g class="layer">
  <title>Layer 1</title>
  <path d="m329,12.2c-29,5 -57.5,26 -70.9,52.5c-10.7,21 -11.4,46.5 -1.9,73.2c10.4,29.4 31.4,48.8 61.3,56.4c7,1.8 31.5,4.7 39.5,4.7c6.1,0 26.6,3.2 32,5.1c12.3,4.2 20.7,8.9 28.6,16.2c14.5,13.2 23,35.1 22.2,57.2l-0.3,9l-50.4,0.3c-35.2,0.1 -50.8,0.6 -51.8,1.3c-1.1,0.9 -1.3,19.7 -1.3,106.8c0,58.1 -0.3,106.6 -0.6,107.8c-0.8,2.9 -2.1,2.9 -2.9,0c-0.7,-2.7 -45.2,-137.9 -47,-142.7c-2.6,-7.5 -3.7,-10.6 -4.5,-13.5c-0.5,-1.7 -1.4,-4.6 -2.1,-6.5c-0.6,-1.9 -1.7,-5.1 -2.4,-7c-0.7,-1.9 -1.8,-5.1 -2.4,-7c-0.7,-1.9 -1.6,-4.9 -2.1,-6.5c-0.5,-1.7 -1.4,-4.6 -2.1,-6.5c-0.6,-1.9 -1.7,-5.1 -2.4,-7c-0.7,-1.9 -1.8,-5.1 -2.5,-7c-0.7,-1.9 -1.5,-4.7 -1.7,-6.3c-1.1,-5.9 0.8,-5.7 -64.9,-5.7c-66.5,0 -62.8,-0.4 -60,6.3c1.7,4.1 3.5,9.4 4.6,13.2c0.5,1.6 1.4,4.6 2.1,6.5c0.6,1.9 1.7,5.1 2.4,7c0.7,1.9 1.8,5.1 2.4,7c0.7,1.9 1.6,4.8 2.1,6.5c0.8,2.9 1.9,6.2 4.5,13.5c0.7,1.9 6.1,18.3 12,36.5c5.9,18.1 11.3,34.6 12,36.5c1.9,5.4 3.4,9.9 5.6,17c1.2,3.6 2.7,8.1 3.4,10c2.7,7.5 3.7,10.6 4.5,13.5c0.5,1.6 1.4,4.6 2.1,6.5c0.6,1.9 1.7,5.1 2.4,7c0.7,1.9 1.8,5.1 2.4,7c0.7,1.9 1.6,4.8 2.1,6.5c0.8,2.9 1.8,6 4.5,13.5c0.7,1.9 8.1,24.4 16.5,50c8.4,25.6 15.8,48.1 16.5,50c2.7,7.5 3.7,10.6 4.5,13.5c1.1,3.9 2.9,9.1 4.6,13.3c0.8,1.8 1.4,3.9 1.4,4.8c0,0.8 0.7,2.8 1.5,4.3c0.8,1.6 1.7,4.7 2.1,7l0.7,4.1l-60.7,0l-60.6,0l0,-2.5c0,-1.3 0.6,-3.9 1.4,-5.7c0.8,-1.8 4.2,-12.1 7.6,-22.8c3.4,-10.7 6.8,-21 7.6,-22.8c0.8,-1.8 1.4,-3.9 1.4,-4.7c0,-0.8 0.6,-2.9 1.4,-4.7c1.7,-4.2 3.5,-9.4 4.6,-13.3c0.8,-2.9 1.9,-6.1 4.5,-13.5c0.7,-1.9 4.8,-14.3 9,-27.5c4.2,-13.2 8.3,-25.6 9,-27.5c2.7,-7.6 3.7,-10.6 4.5,-13.5c1,-3.6 2.8,-8.7 4.7,-13.6c0.8,-2 1.3,-4.5 1.1,-5.5c-0.3,-1.8 -2.5,-1.9 -61.2,-1.9l-60.8,0l-1.5,4c-0.8,2.2 -1.8,5.3 -2.2,7c-0.5,1.6 -1.3,4.1 -1.9,5.5c-0.5,1.4 -3.1,9.2 -5.7,17.5c-2.6,8.2 -5.3,16.6 -6,18.5c-2.9,8.1 -3.7,10.7 -4.5,13.5c-0.4,1.6 -1.2,4.1 -1.7,5.5c-0.6,1.4 -2.5,7.2 -4.3,13c-1.8,5.8 -3.8,12.1 -4.5,14c-0.7,1.9 -3.4,10.2 -6,18.5c-2.6,8.2 -5.3,16.5 -6.1,18.3c-0.8,1.8 -1.4,3.9 -1.4,4.7c0,0.8 -0.6,2.9 -1.4,4.7c-0.8,1.8 -3.5,10 -6.1,18.3c-2.6,8.2 -5.3,16.6 -6,18.5c-0.7,1.9 -2.7,8.2 -4.5,14c-1.8,5.8 -3.6,11.5 -4.1,12.8c-0.5,1.3 -0.9,21.2 -0.9,44.2l0,42l208.4,0c151.3,0 208.7,-0.3 209.2,-1.1c0.3,-0.6 0.1,-2.9 -0.6,-5c-1.7,-5.2 -0.5,-6.5 4.1,-4.6c7.4,3.2 21.2,6.3 39.4,8.8c6.6,1 35.6,1.4 107.5,1.6c54.2,0.2 99.5,0.1 100.7,-0.2l2.3,-0.5l0,-53.5c0,-29.3 0.4,-53.6 0.8,-53.9c0.5,-0.3 3.1,2.5 5.8,6.2c12.2,16.6 28.6,33.6 46.4,47.8c8.2,6.6 21.1,15.6 26.5,18.4c1.1,0.6 4.7,2.6 8,4.5c3.3,1.9 7,3.9 8.3,4.5c1.3,0.5 4.9,2.1 8,3.5c9.8,4.4 11.6,5.2 15.7,6.7c27,10 56.6,15.3 92.8,16.5l16.7,0.6l0,-57.7l0,-57.6l-7.2,0c-8.9,0 -29.7,-2.3 -35.8,-3.9c-13.1,-3.5 -19.6,-5.6 -26.5,-8.6c-1.6,-0.7 -3.7,-1.6 -4.5,-1.9c-0.8,-0.3 -3.9,-2 -6.8,-3.6c-23.3,-13.3 -44.2,-34 -53.2,-53c-9.8,-20.4 -11.5,-28.2 -11.4,-52.5c0,-16.3 0.4,-20.1 2.2,-27c2.3,-8.3 3.5,-12 5.7,-17c0.8,-1.7 1.6,-3.7 2,-4.5c0.3,-0.8 1.1,-2.4 1.8,-3.5c0.7,-1.1 2.5,-4.3 4.1,-7c3.5,-6 13.7,-18.5 19.7,-24.1c5.2,-4.8 15.7,-12.9 21.9,-17c5.2,-3.4 23.3,-12.4 24.9,-12.4c0.5,0 2.5,-0.6 4.3,-1.4c10.6,-4.4 26.7,-7.4 44,-8.2l14.8,-0.7l0,-57.3l0,-57.4l-8.7,0c-12.1,0.1 -45.5,2.6 -52.8,4c-24.3,4.6 -36.4,7.9 -53.7,14.7c-20.5,7.9 -37.7,17.7 -58.3,33.1c-12.4,9.3 -38.9,35.8 -47.5,47.4c-3.5,4.8 -6.7,8.5 -7.2,8.2c-0.4,-0.3 -0.8,-23.9 -0.8,-52.4c0,-28.5 -0.3,-52.5 -0.6,-53.4c-0.5,-1.4 -6,-1.6 -51,-1.6c-43.7,0 -50.4,-0.2 -51.1,-1.5c-1.2,-2.1 1.1,-25.5 3.2,-33.5c5.9,-22.3 19.2,-37.3 40,-45.3c11.9,-4.5 29.9,-7.7 43.5,-7.7c9.1,0 25.5,-2.2 33.6,-4.5c2.8,-0.8 5.6,-1.5 6.2,-1.5c2.1,0 14.5,-6.2 21.4,-10.7c25.8,-16.7 41.7,-45.5 41.8,-75.6c0,-5.5 -0.7,-12.8 -1.6,-16.5c-1.8,-8 -5,-18.5 -6.3,-21c-0.5,-0.9 -1.9,-3.7 -3.1,-6.2c-4.7,-10.1 -14.4,-22.6 -23.4,-30.3c-7.8,-6.6 -22.5,-14.7 -31.7,-17.3c-9.5,-2.7 -26.5,-3.9 -38.6,-2.6c-17.2,1.7 -26.1,4.6 -44.4,14.5c-4.2,2.2 -11.1,7 -20.9,14.3c-21,15.6 -38.1,23.9 -61.6,29.9c-8.3,2.1 -36.5,2.1 -44.8,0c-23.5,-6 -43.6,-15.8 -64.7,-31.6c-16.9,-12.7 -28.3,-18.8 -45.9,-24.8c-10.2,-3.5 -30.5,-4.9 -42,-2.9zm35.1,17.4c16.5,4.9 24.4,9.2 46.9,25.5c18.5,13.4 36.8,22.9 54.5,28.3c16.7,5 17.3,5.1 38.5,5.1c22.3,0 27.3,-0.9 49.5,-8.9c5.2,-1.8 25.5,-12.3 27.6,-14.2c0.8,-0.8 1.8,-1.4 2.1,-1.4c0.7,0 12.7,-8.4 22.3,-15.6c3.3,-2.4 6.9,-4.9 8,-5.4c1.1,-0.6 3.5,-1.9 5.2,-3c5.5,-3.3 16.6,-7.7 25.1,-9.9c11.1,-2.9 30.8,-3 40.2,-0.2c13,3.9 20.4,7.7 29.5,15.3c5.3,4.4 12.7,12.8 15,16.9c3.6,6.5 8.5,16.6 8.5,17.7c0,0.6 0.6,2.6 1.4,4.4c2.3,5.3 4.8,21.5 4.1,26.1c-4,25.8 -13.2,42.7 -29.8,55.1c-17.2,12.8 -30.3,16.4 -66.4,18.6c-7.9,0.5 -14.6,1.1 -15.1,1.4c-0.5,0.3 -3.5,1 -6.8,1.5c-9.8,1.8 -16.2,3.8 -25.3,8.2c-16.7,8.1 -28.5,19.7 -35.8,34.9c-9.1,19.2 -11.3,31.7 -12.2,71.9l-0.6,25.6l-47.5,0l-47.5,0l-0.5,-35.5c-0.6,-39.5 -0.9,-41.9 -8.3,-58c-7.6,-16.7 -22.4,-31.4 -40,-39.8c-11.2,-5.3 -30.6,-10.2 -40,-10.2c-7.2,0.1 -35.8,-3 -43.7,-4.7c-9.9,-2.1 -24.2,-9 -30.8,-14.8c-5,-4.5 -14.2,-15.5 -14.2,-17.1c0,-0.4 -0.6,-1.5 -1.3,-2.3c-0.7,-0.9 -2.1,-3.6 -3.1,-6.1c-1,-2.5 -2.2,-5.4 -2.7,-6.5c-3,-6.7 -4.2,-14 -4.6,-28.3c-0.5,-17.1 0,-19.8 6.5,-32.7c7.6,-15.4 21.2,-28.5 38.3,-37.2c5.7,-2.8 16,-6 21.4,-6.6c7.3,-0.9 26.2,0.3 31.6,1.9zm185.7,314.2c0.9,0.6 1.2,3.5 1,10.8l-0.3,9.9l-46.4,0.3c-25.8,0.1 -46.9,-0.2 -47.4,-0.7c-0.4,-0.4 -1,-5 -1.3,-10c-0.4,-8.8 -0.3,-9.2 1.8,-10.1c2.9,-1.1 90.8,-1.3 92.6,-0.2zm0.7,48.2l0,10.5l-46,0.2c-27.9,0.2 -46.6,-0.1 -47.5,-0.7c-2.3,-1.5 -2.8,-17.1 -0.5,-19.3c1.5,-1.6 5.7,-1.7 47.8,-1.5l46.2,0.3l0,10.5zm0,141l0,114.5l-19.5,0.3c-47.1,0.8 -62.7,-5.2 -70.5,-26.9c-4.6,-12.9 -4.8,-17.5 -5.2,-110.1c-0.2,-55 0.1,-88.7 0.7,-90.3l1,-2.5l46.7,0.2l46.8,0.3l0,114.5z" fill="#ffe400" id="svg_2" stroke="#999999" stroke-width="0" transform="matrix(1 0 0 1 0 0)"/>
  <path d="m661,46.6c-16,2.1 -25.5,5.6 -35.2,13.1c-18.7,14.2 -27.7,37.2 -22.2,56.2c3.3,11.2 7.5,18.2 15.9,26.6c8,8 14.6,12.1 25.5,15.9c6.3,2.2 24.8,2.2 31.5,0c17.1,-5.7 31.6,-17.4 37.6,-30.4c5.1,-10.8 5.4,-12.2 5.4,-23.5c0,-11.3 -0.3,-12.7 -5.4,-23.5c-5.4,-11.7 -19.2,-24.7 -31.6,-29.8c-6.3,-2.6 -17.9,-5.1 -21.5,-4.6zm12.6,10.3c6.8,2.2 9.1,3.4 15.6,7.8c10.9,7.6 20,22.3 21.3,34.3c1.5,14.5 -2.9,26.3 -14,37.6c-11.4,11.6 -24.2,16.3 -40.9,15c-15.4,-1.3 -30.7,-11.9 -39.4,-27.4c-2.6,-4.7 -5.2,-14.9 -5.2,-20.7c0,-5.7 2.4,-14.6 5.3,-19.8c4.9,-8.8 14.6,-18.5 22.7,-22.8c10.8,-5.7 24.4,-7.3 34.6,-4z" fill="#ffe400" id="svg_3" stroke="#999999" stroke-width="0" transform="matrix(1 0 0 1 0 0)"/>
  <path d="m329,48.5c-15.1,3.3 -31.4,15.6 -39.6,29.7c-1.4,2.4 -1.7,3.2 -3.9,8.8c-8.1,20.3 0,46.1 19,60.7c10.5,8.1 23.1,12.3 36.7,12.3c10.8,0 16.5,-1.4 27.8,-6.9c7.9,-3.8 20.1,-14.6 23.3,-20.6c5.3,-10.1 8.6,-21.1 8.7,-28.9c0,-10.1 -4.9,-23.3 -12.5,-33.5c-13.5,-17.9 -37.3,-26.5 -59.5,-21.6zm24,8.4c8.7,2.5 11.6,3.9 17.5,8.2c10.3,7.6 16.2,15.9 19.6,27.9c2.1,7.3 2.3,12.6 0.8,18.5c-0.6,2.2 -1.3,5.1 -1.6,6.5c-0.9,3.6 -6.6,12.9 -10.5,17.1c-13.8,14.8 -34.5,20.3 -53.3,14.1c-6.9,-2.2 -17.7,-9.4 -22.4,-15c-5.2,-6.1 -9.5,-15.1 -11.1,-23.5c-1.1,-5.6 -1.1,-7.8 0,-13.4c3.2,-16.1 12.4,-27.9 29,-37.1c4.5,-2.5 14.4,-5 20,-5.1c3,-0.1 8.4,0.7 12,1.8z" fill="#ffe400" id="svg_4" stroke="#999999" stroke-width="0" transform="matrix(1 0 0 1 0 0)"/>
  <path d="m0,835.5l0,56.5l450,0l450,0l0,-56.5l0,-56.5l-450,0l-450,0l0,56.5zm17.8,-17.3c0.2,10.5 0.5,12.7 1.9,13.2c0.8,0.4 2.2,0.1 3.1,-0.6c1.8,-1.5 9.8,-13.6 11.8,-17.8c2,-4.2 5.8,-8 8,-8c1.2,0 2.5,0.4 2.9,0.9c0.3,0.5 -2.7,6.3 -6.7,12.8c-4.7,7.7 -7.1,12.8 -7.1,14.8c0,1.8 1.8,6.1 4.5,10.5c10.8,18 11.5,20 7.4,20c-3,0 -5.1,-2.6 -13,-16.3c-3.2,-5.4 -6.3,-10 -7.1,-10.3c-0.7,-0.3 -2.3,-0.1 -3.4,0.6c-1.9,1 -2.1,2 -2.1,12c0,5.9 -0.3,11.5 -0.6,12.4c-0.8,2.1 -5,2.1 -5.8,0c-0.9,-2.2 -0.8,-55.9 0.1,-56.8c0.4,-0.4 1.9,-0.6 3.3,-0.4l2.5,0.3l0.3,12.7zm65.7,-10.9c6.2,3.5 6.9,5.9 7.3,24.2c0.4,17.8 -0.6,25.1 -4.1,28.2c-6.8,6.2 -25.9,5.9 -31.9,-0.4c-2.3,-2.4 -2.3,-2.9 -2.3,-24.7c0,-24.5 -0.1,-24.2 6.4,-27.6c5.5,-2.9 19.2,-2.7 24.6,0.3zm23.5,10.7l0.5,12.5l11.8,0.3l11.7,0.3l0,-11.8c0,-6.5 0.4,-12.4 0.9,-13.1c0.5,-0.8 2.1,-1.2 3.7,-1l2.9,0.3l0.3,27.9c0.2,28.9 0,30.6 -3.9,30.6c-2.9,0 -3.4,-1.8 -3.9,-15l-0.5,-12.5l-10.9,-0.3c-8.1,-0.2 -11.2,0.1 -11.8,1c-0.4,0.7 -0.8,6.3 -0.8,12.5c0,6.1 -0.3,11.8 -0.6,12.7c-0.8,2.1 -5,2.1 -5.8,0c-0.9,-2.2 -0.8,-55.9 0.1,-56.8c0.4,-0.4 1.9,-0.6 3.3,-0.4c2.5,0.3 2.5,0.3 3,12.8zm71,-11.5c4.1,2.1 7,6.3 7,10.1c0,3.1 -0.3,3.4 -3,3.4c-2.5,0 -3,-0.4 -3,-2.3c0,-1.3 -1.2,-3.4 -2.6,-4.8c-2.2,-2.1 -3.5,-2.4 -9.4,-2.4c-5.9,0 -7.2,0.3 -9.4,2.4l-2.6,2.4l0,19.3l0,19.2l3.1,2.6c2.6,2.2 4,2.6 9.3,2.6c3.4,0 8.4,-0.7 11,-1.6c5.4,-1.8 7.5,-1 5.8,2.3c-2.3,4.2 -19.4,5.9 -27.5,2.8c-7.9,-3.1 -8.2,-4.1 -8.2,-27.6c0,-23 0.4,-24.7 6.5,-27.9c4.5,-2.4 18.7,-2.7 23,-0.5zm50.8,0.9c0.6,2.7 -1.5,3.6 -8.5,3.6l-6.3,0l0,24.6c0,25 -0.5,28.4 -3.8,28.4c-4,0 -4.2,-1.5 -4.2,-27.7l0,-25.3l-7,0c-7.3,0 -9,-1 -7.6,-4.5c0.5,-1.3 3.2,-1.5 18.8,-1.3c17,0.3 18.3,0.4 18.6,2.2zm35.5,-0.8c6.2,3.2 7.6,5.9 7.7,15.3l0,8.4l-4,3.9c-4.1,3.8 -4.1,3.8 -12.5,3.8c-4.6,0 -9,0.3 -9.9,0.6c-1.3,0.5 -1.6,2.5 -1.6,11.8c0,7.4 -0.4,11.6 -1.2,12.4c-1.8,1.8 -4.6,1.4 -5.8,-0.7c-1.4,-2.6 -1.4,-52.6 0,-55.2c1,-1.7 2.2,-1.9 12.6,-1.9c8.6,0 12.3,0.4 14.7,1.6zm18.7,0.4c1.5,3.3 3.8,8.7 5.5,13c0.9,2.5 2.3,6 3.1,7.8c0.8,1.8 1.4,3.9 1.4,4.6c0,1.8 3.7,4.9 4.9,4.1c0.6,-0.3 1.1,-1.3 1.1,-2.2c0,-0.8 0.6,-2.9 1.4,-4.6c0.7,-1.8 2.1,-5.2 3.1,-7.7c0.9,-2.5 2.3,-6 3.1,-7.8c0.8,-1.8 1.4,-3.8 1.4,-4.4c0,-2 3.3,-4.8 5.7,-4.8c2.8,0 2.9,1 0.2,8c-1.1,3 -2.4,6.6 -2.9,8c-0.4,1.4 -1.3,3.8 -2,5.5c-0.7,1.6 -1.6,3.9 -2.1,5c-1.4,3.4 -5,12.8 -6.6,17c-3.6,9.9 -6.8,13.6 -12.9,15.4c-3.6,1 -7.9,-0.6 -7.9,-2.9c0,-1 1.5,-1.7 4.4,-2.1c6.9,-0.9 10.8,-7.4 7.9,-13.3c-0.9,-1.7 -2.3,-5.1 -3.3,-7.6c-1,-2.5 -2.3,-5.9 -3,-7.5c-0.7,-1.7 -2,-4.8 -2.8,-7c-0.8,-2.2 -2.7,-6.8 -4.1,-10.3c-1.4,-3.5 -2.3,-6.8 -2,-7.3c0.9,-1.5 5.6,-0.6 6.4,1.1zm46.8,11.2c0.2,10.5 0.5,12.7 1.9,13.2c2.4,1 4.8,-1.8 12,-13.9c3.7,-6 7.1,-11.3 7.7,-11.7c1.5,-1 5.4,-1 6,0c0.2,0.4 -2.9,6.6 -7,13.6c-5.6,9.5 -7.4,13.4 -7,15.1c0.3,1.3 2.5,5.6 4.9,9.7c2.4,4 4.6,8 5,8.8c0.4,0.8 1.6,2.8 2.6,4.5c2.8,4.3 2.6,6.5 -0.3,6.5c-3,0 -5.1,-2.7 -13.1,-16.3c-3.1,-5.4 -6.3,-10.1 -7,-10.3c-0.7,-0.3 -2.3,-0.1 -3.4,0.6c-1.9,1 -2.1,2 -2.1,12c0,5.9 -0.3,11.5 -0.6,12.4c-0.8,2.1 -5,2.1 -5.8,0c-0.9,-2.2 -0.8,-55.9 0.1,-56.8c0.4,-0.4 1.9,-0.6 3.3,-0.4l2.5,0.3l0.3,12.7zm70.7,-10.2c0,2.4 -0.3,2.5 -7.2,2.8l-7.3,0.3l0,25.2c0,18.4 -0.3,25.6 -1.2,26.5c-1.6,1.6 -4.5,1.5 -5.5,-0.1c-0.4,-0.6 -1,-12.5 -1.3,-26.2l-0.5,-25l-7,-0.5c-6.8,-0.5 -7,-0.6 -7.3,-3.3l-0.3,-2.7l18.8,0.2l18.8,0.3l0,2.5zm38.3,-1.1c6.7,3.5 7.2,5.3 7.2,27.6c0,18 -0.2,20.1 -2,23c-4.7,7.6 -24.8,9.3 -32.4,2.6c-4.1,-3.6 -4.6,-6.2 -4.6,-25.6c0,-20.9 0.4,-22.7 6.7,-27c3.3,-2.2 4.8,-2.5 12.6,-2.5c6.7,0 9.7,0.5 12.5,1.9zm45,0c5.3,2.7 7.2,6.6 7.2,14.6c0,12.4 -4.5,16.5 -18.2,16.5c-5.8,0 -8.9,0.4 -9.6,1.3c-0.6,0.7 -1.3,6.4 -1.4,12.8c-0.3,11.2 -0.3,11.4 -2.7,11.7c-1.3,0.2 -2.8,-0.2 -3.2,-1c-0.5,-0.7 -0.9,-13.7 -0.9,-29c0,-21.2 0.3,-27.8 1.3,-28.1c0.6,-0.3 6.3,-0.6 12.5,-0.6c9.2,-0.1 12,0.2 15,1.8zm47.9,1c3,2.2 4.2,3.9 4.7,6.6c0.8,4.3 -0.2,5.8 -3.5,5.3c-1.7,-0.2 -2.5,-1 -2.7,-2.9c-0.6,-4.8 -3.5,-6.3 -11.9,-6.3c-11.2,0 -11.2,0.1 -11.3,23.7l0,18.9l2.9,2.9c2.7,2.6 3.6,2.9 9.6,2.9c3.6,0 8.2,-0.7 10.2,-1.5c5.2,-2.2 6.5,-2 6.1,1.1c-0.2,2.2 -1.1,2.9 -4.8,4.1c-11.3,3.5 -25.2,1 -29,-5.2c-1.8,-3 -2,-5 -2,-23.6c0.1,-19.6 0.2,-20.5 2.3,-23.1c3.7,-4.5 7.4,-5.8 16.8,-5.8c7.9,0 8.9,0.2 12.6,2.9zm21.1,10.4c0.2,10.2 0.6,12.9 1.7,13.4c0.9,0.3 2.2,-0.1 3.1,-0.8c1.3,-1 7.6,-11 14.5,-22.7c1.6,-2.7 6.3,-4.2 7.9,-2.5c0.4,0.4 -2.6,6.4 -6.7,13.3c-7.8,12.9 -8.7,15.8 -5.9,18.9c0.9,0.9 1.6,2 1.6,2.4c0,0.4 2,4.1 4.5,8.3c2.5,4.1 4.5,7.8 4.5,8.2c0,0.3 0.7,1.3 1.6,2.3c3.2,3.5 -0.8,6.6 -4.7,3.6c-0.9,-0.7 -4.8,-6.7 -8.8,-13.5c-7.2,-12.1 -9,-13.9 -11.9,-11c-0.8,0.8 -1.2,5 -1.2,12.3c0,7.3 -0.4,11.5 -1.2,12.3c-1.8,1.8 -4.6,1.4 -5.8,-0.7c-1.4,-2.7 -1.4,-52.6 0.1,-55.2c0.7,-1.4 1.9,-1.9 3.7,-1.7l2.7,0.3l0.3,12.8zm65.4,-11.1c6.1,3.5 6.8,6.1 6.8,27.4c0,22.9 -1,25.6 -10.5,28.4c-8.6,2.6 -19.7,0.9 -24.7,-3.8l-2.8,-2.6l0,-22.1c0,-21.7 0,-22.2 2.3,-24.3c4.4,-4.1 7.9,-5.2 16.6,-5.2c6.8,0 9.1,0.4 12.3,2.2zm48.6,-0.9c0.7,0.8 0.7,1.8 0.2,2.7c-0.7,1.1 -3.9,1.6 -13.2,2l-12.3,0.5l-0.3,7.5c-0.5,12.4 -0.9,12 11.1,12c10.7,0 13.4,0.8 12.4,3.4c-0.5,1.3 -2.4,1.6 -11,1.6c-6.7,0 -10.7,0.4 -11.5,1.2c-0.8,0.8 -1.2,4.7 -1.2,10.9c0,7.9 0.3,9.8 1.6,10.3c0.9,0.3 6.7,0.6 12.9,0.6c11.5,0 13.8,0.7 11.5,3.5c-1,1.2 -4.2,1.5 -15,1.5c-7.6,0 -14.5,-0.3 -15.4,-0.6c-1.4,-0.5 -1.6,-4 -1.6,-28.8c0,-15.6 0.3,-28.6 0.7,-28.9c0.3,-0.4 7.3,-0.7 15.3,-0.7c10.8,0 15,0.3 15.8,1.3zm58,1.4c0.4,2.9 -1.2,3.2 -15.3,3.6l-11,0.2l0,8.5l0,8.5l9,0.5c14.7,0.9 19.3,4.6 20.2,16.4c0.4,5 0,6.9 -1.9,10.6c-1.3,2.6 -3.6,5.1 -5.3,6c-3.5,1.7 -26.1,2.8 -27.6,1.3c-1.1,-1.1 -1.4,-55.8 -0.4,-57.4c0.4,-0.6 6.8,-0.8 16.3,-0.7c15.3,0.3 15.7,0.3 16,2.5zm18.2,10.3l0.5,12.5l4.4,0.3c5.5,0.4 6.1,-0.4 6.1,-9c0,-8.5 1,-11.1 5.7,-14.2c3.2,-2.2 4.8,-2.6 11.6,-2.6c5.8,0 8.8,0.5 11.7,2c6.3,3.2 7,6.1 7,27.6c0,18.5 -0.6,22 -4,25.5c-4.1,4.1 -17.2,5.5 -24,2.6c-6.4,-2.7 -7.5,-4.8 -7.8,-15.1c-0.4,-10.2 -1.2,-11.6 -6.9,-11.6c-4,0 -4.2,0.6 -4.6,16l-0.2,11.5l-2.6,0.3c-2,0.2 -2.8,-0.2 -3.3,-2c-0.8,-3 -0.8,-53.2 0,-55.3c0.4,-1 1.6,-1.5 3.3,-1.3l2.6,0.3l0.5,12.5zm84.6,-11.3c4.8,2.3 7.4,7.5 7.4,14.8c0,12.3 -3.9,15.8 -18.5,16.5l-10,0.5l-0.5,12.5l-0.5,12.5l-2.5,0l-2.5,0l-0.3,-28c-0.1,-15.4 0,-28.5 0.3,-29.2c0.8,-2.1 22.5,-1.8 27.1,0.4zm49.6,1.5c4.8,3.7 5.8,8.3 5.8,27.1c0,15.9 -0.8,20.6 -4.2,24.3c-5.6,6.3 -25.1,5.9 -32.2,-0.7c-2,-1.9 -2.1,-3 -2.4,-22.4c-0.4,-23.3 0.2,-26.1 6.7,-29.5c3,-1.7 5.2,-2 13.2,-1.8c8.6,0.3 9.9,0.6 13.1,3z" fill="#ffe400" id="svg_5" stroke="#999999" stroke-width="0"/>
  <path d="m65.5,810.7c-1.1,0.3 -3,1.4 -4.2,2.6c-2.2,2 -2.3,2.6 -2.3,21.1c0,10.5 0.4,19.6 0.8,20.2c3.3,4.8 13.9,6 19.8,2.3l3.4,-2.1l0,-19.8c0,-23.6 0,-23.8 -9.5,-24.4c-3.3,-0.3 -6.9,-0.2 -8,0.1z" fill="#ffe400" id="svg_6" stroke="#999999" stroke-width="0"/>
  <path d="m245.2,811.3c-0.9,1 -1.2,4.5 -1,11.3l0.3,9.9l8.3,0c10.6,0 12.2,-1.4 12.2,-10.9c-0.1,-9 -1.6,-10.6 -11.1,-11.3c-5.9,-0.4 -7.7,-0.2 -8.7,1z" fill="#ffe400" id="svg_7" stroke="#999999" stroke-width="0"/>
  <path d="m420.5,810.8c-5.4,1.2 -6.5,5.3 -6.5,23.3c0,8.6 0.5,17 1.1,18.7c1.5,4.5 4.8,6.2 11.9,6.2c5.5,0 6.5,-0.3 9.1,-2.9l2.9,-2.9l0,-18.6c0,-17.8 -0.1,-18.6 -2.2,-21c-1.8,-2 -3.5,-2.7 -7.8,-3c-3,-0.3 -6.8,-0.2 -8.5,0.2z" fill="#ffe400" id="svg_8" stroke="#999999" stroke-width="0"/>
  <path d="m463.8,811.1c-1.5,0.8 -1.8,2.5 -1.8,10.2c0,5.9 0.4,9.7 1.2,10.5c1.3,1.3 11.6,1.6 15.6,0.6c4.5,-1.3 6.9,-11.6 4,-17.8c-1.8,-4 -14.3,-6.3 -19,-3.5z" fill="#ffe400" id="svg_9" stroke="#999999" stroke-width="0"/>
  <path d="m599.8,810.7c-1.5,0.2 -3.7,1.6 -4.8,3.1c-2,2.5 -2.1,3.6 -1.8,21.4c0.3,17.9 0.4,18.9 2.5,21c1.8,1.8 3.7,2.3 9.1,2.6c6.2,0.4 7.1,0.2 9.8,-2.1l2.9,-2.5l0,-19.6c0,-18.2 -0.1,-19.7 -2,-21.5c-2.1,-2.1 -10.3,-3.4 -15.7,-2.4z" fill="#ffe400" id="svg_10" stroke="#999999" stroke-width="0"/>
  <path d="m698.4,836.3c-0.2,0.7 -0.3,6 -0.2,11.8l0.3,10.4l8,0.2c11.2,0.4 12.8,-0.9 13.3,-10.9c0.3,-6.3 0.1,-7.7 -1.8,-10.1c-2,-2.6 -2.6,-2.7 -10.6,-2.7c-6.1,0 -8.6,0.4 -9,1.3z" fill="#ffe400" id="svg_11" stroke="#999999" stroke-width="0"/>
  <path d="m766.3,810.7c-4.8,0.9 -5.3,3.3 -5.3,24.2l0,19.5l2.7,2.3c3.6,3.1 11.9,3.2 15.7,0.2l2.6,-2l0,-20.2c0,-11.1 -0.4,-20.8 -0.8,-21.5c-1.6,-2.4 -8.9,-3.7 -14.9,-2.5z" fill="#ffe400" id="svg_12" stroke="#999999" stroke-width="0" transform="matrix(1 0 0 1 0 0)"/>
  <path d="m807.2,811.3c-0.9,1 -1.2,4.5 -1,11.3l0.3,9.9l8.7,0c11.2,0 12.2,-0.8 12.2,-10.5c0.1,-9.5 -1.5,-11.1 -11.6,-11.8c-5.8,-0.3 -7.6,-0.1 -8.6,1.1z" fill="#ffe400" id="svg_13" stroke="#999999" stroke-width="0"/>
  <path d="m858,810.7c-1.4,0.2 -3.5,1.4 -4.7,2.6c-2.2,2 -2.3,2.6 -2.3,21.3l0,19.2l3.1,2.6c4.1,3.5 13.5,3.7 17.9,0.4l3,-2.2l0,-20.1c0,-18.1 -0.2,-20.4 -1.8,-21.8c-1.9,-1.7 -10.9,-2.9 -15.2,-2z" fill="#ffe400" id="svg_14"/>
 </g>
</svg>