<?xml version="1.0"?>
<svg width="512" height="512" xmlns="http://www.w3.org/2000/svg" xmlns:svg="http://www.w3.org/2000/svg" enable-background="new 0 0 490.574 490.574" version="1.1" xml:space="preserve">
 <g class="layer">
  <title>Layer 1</title>
  <g id="svg_1">
   <path d="m258.41,282.13c-9.88,-23.71 1.45,-51.03 25.15,-60.92s51.03,1.45 60.92,25.15c9.88,23.71 -1.45,51.03 -25.15,60.92c-23.71,9.88 -51.03,-1.45 -60.92,-25.15zm188.85,15.75l-21.86,-9c3.21,-15.99 3.29,-32.79 0,-49.34l21.78,-9.08c5.3,-2.17 7.88,-8.28 5.63,-13.66l-10.85,-26.2c-2.17,-5.3 -8.28,-7.88 -13.66,-5.63l-21.86,9.08c-9.4,-14.06 -21.38,-25.88 -34.96,-34.88l9,-21.86c2.17,-5.3 -0.32,-11.41 -5.63,-13.58l-26.12,-10.93c-5.3,-2.17 -11.41,0.32 -13.58,5.63l-9,21.86c-9.64,-1.93 -19.61,-2.73 -29.57,-2.33c-2.01,14.95 -13.74,26.76 -28.53,28.93c-0.16,0.32 -0.24,0.56 -0.4,0.88c4.18,5.71 6.51,12.62 6.51,19.93c0,3.05 -0.4,5.95 -1.21,8.84c0.16,-0.08 0.24,-0.16 0.4,-0.16c37.45,-15.59 80.6,2.25 96.19,39.78c15.59,37.45 -2.25,80.6 -39.78,96.19c-37.45,15.59 -80.6,-2.25 -96.19,-39.78c-8.52,-20.65 -6.99,-42.91 2.41,-61.4c-9,1.61 -18.56,-0.32 -26.2,-6.03c-0.32,0.16 -0.56,0.24 -0.88,0.32c-2.49,16.15 -16.47,28.53 -33.27,28.53c-0.96,11.57 -0.4,23.39 2.01,35.2l-21.78,9.08c-5.3,2.17 -7.88,8.28 -5.63,13.66l10.85,26.2c2.17,5.3 8.28,7.88 13.66,5.63l21.86,-9.08c9.4,14.06 21.38,25.88 34.96,34.88l-9,21.86c-2.17,5.3 0.32,11.41 5.63,13.58l26.28,10.85c5.3,2.17 11.41,-0.32 13.58,-5.63l9,-21.86c15.99,3.21 32.79,3.29 49.42,0l9.08,21.78c2.17,5.3 8.28,7.88 13.66,5.63l26.2,-10.85c5.3,-2.17 7.88,-8.28 5.63,-13.66l-9.08,-21.78c14.06,-9.4 25.88,-21.38 34.88,-34.96l21.86,9c5.3,2.17 11.41,-0.32 13.58,-5.63l10.85,-26.28c2.01,-5.46 -0.56,-11.49 -5.87,-13.74zm-359.63,-156.47l-13.58,-0.08c-4.82,0 -8.76,-3.94 -8.76,-8.84l0.08,-14.79c0,-4.82 3.94,-8.76 8.84,-8.76l13.58,0.08c2.09,-10.45 6.27,-20.49 12.46,-29.57l-9.48,-9.56c-3.38,-3.46 -3.38,-9 0.08,-12.38l10.45,-10.37c3.46,-3.38 9,-3.38 12.38,0.08l9.56,9.64c9.16,-6.11 19.29,-10.13 29.73,-12.13l0.08,-13.58c0,-4.82 3.94,-8.76 8.84,-8.76l14.79,0.08c4.82,0 8.76,3.94 8.76,8.84l-0.08,13.58c10.45,2.09 20.49,6.27 29.57,12.46l9.64,-9.56c3.46,-3.38 9,-3.38 12.38,0.08l10.37,10.45c3.38,3.46 3.38,9 -0.08,12.38l-9.64,9.56c6.11,9.16 10.13,19.29 12.13,29.73l13.58,0.08c4.82,0 8.76,3.94 8.76,8.84l-0.08,14.79c0,4.82 -3.94,8.76 -8.84,8.76l-13.58,-0.08c-2.09,10.45 -6.27,20.49 -12.46,29.57l9.56,9.64c3.38,3.46 3.38,9 -0.08,12.38l-10.45,10.37c-3.46,3.38 -9,3.38 -12.38,-0.08l-9.56,-9.64c-9.16,6.11 -19.29,10.13 -29.73,12.13l-0.08,13.58c0,4.82 -3.94,8.76 -8.84,8.76l-14.79,-0.08c-4.82,0 -8.76,-3.94 -8.76,-8.84l0.08,-13.58c-10.45,-2.09 -20.49,-6.27 -29.57,-12.46l-9.64,9.56c-3.46,3.38 -9,3.38 -12.38,-0.08l-10.37,-10.45c-3.38,-3.46 -3.38,-9 0.08,-12.38l9.64,-9.56c-6.19,-9.24 -10.21,-19.37 -12.22,-29.81zm53.12,11.89c15.27,15.43 40.1,15.59 55.53,0.32s15.59,-40.1 0.32,-55.53s-40.1,-15.59 -55.53,-0.32c-15.51,15.27 -15.59,40.1 -0.32,55.53z" fill="#ffe400" id="svg_2" stroke="#ffffff" stroke-width="0"/>
  </g>
  <g id="svg_3"/>
  <g id="svg_4"/>
  <g id="svg_5"/>
  <g id="svg_6"/>
  <g id="svg_7"/>
  <g id="svg_8"/>
  <g id="svg_9"/>
  <g id="svg_10"/>
  <g id="svg_11"/>
  <g id="svg_12"/>
  <g id="svg_13"/>
  <g id="svg_14"/>
  <g id="svg_15"/>
  <g id="svg_16"/>
  <g id="svg_17"/>
  <text fill="#ffe400" font-family="Roboto" font-size="72" id="svg_18" stroke-linecap="round" text-anchor="middle" transform="matrix(1 0 0 1 0 0)" x="256" xml:space="preserve" y="491.8">НАСТРОЙКИ</text>
 </g>
</svg>