<?xml version="1.0"?>
<svg width="512" height="512" xmlns="http://www.w3.org/2000/svg" xmlns:svg="http://www.w3.org/2000/svg" enable-background="new 0 0 512 512" version="1.1" xml:space="preserve">
 <g class="layer">
  <title>Layer 1</title>
  <g id="svg_22"/>
  <g id="svg_23"/>
  <g id="svg_24"/>
  <g id="svg_25"/>
  <g id="svg_26"/>
  <g id="svg_27"/>
  <g id="svg_28"/>
  <g id="svg_29"/>
  <g id="svg_30"/>
  <g id="svg_31"/>
  <g id="svg_32"/>
  <g id="svg_33"/>
  <g id="svg_34"/>
  <g id="svg_35"/>
  <g id="svg_36"/>
  <g id="svg_37">
   <g id="svg_1">
    <g id="svg_2">
     <path d="m471.62,191.34l-88.3,-152.93c-7.97,-13.8 -22.82,-22.39 -38.76,-22.39l-176.6,0c-15.94,0 -30.78,8.58 -38.76,22.39l-88.3,152.93c-7.96,13.79 -7.96,30.96 0,44.76l88.3,152.93c7.97,13.8 22.82,22.39 38.76,22.39l176.6,0c15.94,0 30.78,-8.58 38.76,-22.39l88.3,-152.93c7.96,-13.79 7.96,-30.96 0,-44.75l0,-0.01zm-15.66,35.71l-88.3,152.93c-4.75,8.24 -13.6,13.34 -23.1,13.34l-176.6,0c-9.5,0 -18.36,-5.11 -23.1,-13.34l-88.3,-152.93c-4.75,-8.24 -4.75,-18.45 0,-26.68l88.3,-152.93c4.75,-8.24 13.6,-13.34 23.1,-13.34l176.6,0c9.5,0 18.36,5.11 23.1,13.34l88.3,152.93c4.75,8.24 4.75,18.45 0,26.68z" fill="#ffe400" id="svg_3"/>
    </g>
   </g>
   <g id="svg_4">
    <g id="svg_5">
     <path d="m441.07,208.5l-87.89,-152.22c-1.86,-3.22 -5.32,-5.21 -9.03,-5.21l-175.77,0c-3.71,0 -7.16,1.99 -9.03,5.21l-87.89,152.23c-1.85,3.21 -1.85,7.21 0,10.41l87.89,152.22c1.86,3.22 5.32,5.21 9.03,5.21l112.29,0c4.98,0 9.04,-4.04 9.04,-9.05s-4.04,-9.04 -9.04,-9.04l-107.88,0l-83.46,-144.57l83.46,-144.57l166.93,0l83.47,144.57l-85.68,148.39c-2.5,4.32 -1.01,9.85 3.32,12.34c4.31,2.49 9.85,1.01 12.34,-3.32l87.89,-152.23c1.85,-3.21 1.85,-7.21 0,-10.41l0.01,0.02z" fill="#ffe400" id="svg_6"/>
    </g>
   </g>
   <g id="svg_7">
    <g id="svg_8">
     <path d="m315.03,358.28l-3.62,0c-4.98,0 -9.04,4.04 -9.04,9.04s4.04,9.05 9.04,9.05l3.62,0c4.98,0 9.04,-4.04 9.04,-9.05s-4.04,-9.04 -9.04,-9.04z" fill="#ffe400" id="svg_9"/>
    </g>
   </g>
   <g id="svg_10">
    <g id="svg_11">
     <path d="m163.86,195.22c0,-3.16 2.96,-6.12 10.2,-6.12c8.37,0 10.29,3.87 13.97,3.87c4.49,0 6.32,-5.6 6.32,-8.37c0,-7.94 -14.89,-8.96 -20.29,-8.96c-12.74,0 -26.09,5.81 -26.09,21.11c0,23.85 32.32,21.71 32.32,34.05c0,4.9 -5.2,6.73 -9.89,6.74c-9.48,0 -12.55,-7.55 -17.34,-7.55c-3.87,0 -6.93,5.1 -6.93,8.57c0,6.73 11.21,13.25 24.57,13.25c14.78,0 25.49,-7.95 25.49,-22.64c0,-25.69 -32.32,-23.76 -32.32,-33.95l0.01,0z" fill="#ffe400" id="svg_12"/>
    </g>
   </g>
   <g id="svg_13">
    <g id="svg_14">
     <path d="m248.17,176.24l-44.05,0c-3.36,0 -4.79,3.67 -4.79,7.04c0,3.87 1.73,7.24 4.79,7.24l14.06,0l0,55.36c0,3.27 3.98,4.9 7.95,4.9c3.98,0 7.95,-1.64 7.95,-4.9l0,-55.36l14.06,0c3.06,0 4.8,-3.36 4.8,-7.24c0,-3.36 -1.43,-7.04 -4.8,-7.04l0.01,0z" fill="#ffe400" id="svg_15"/>
    </g>
   </g>
   <g id="svg_16">
    <g id="svg_17">
     <path d="m282.34,176.24c-14.06,0 -24.98,6.52 -24.98,24.07l0,27.01c0,17.53 10.91,24.07 24.98,24.07s25.08,-6.52 25.08,-24.07l0,-27.01c0,-17.53 -11.02,-24.07 -25.08,-24.07zm9.18,51.08c0,7.04 -3.46,10.2 -9.18,10.2s-9.07,-3.15 -9.07,-10.2l0,-27.01c0,-7.03 3.36,-10.2 9.07,-10.2s9.18,3.16 9.18,10.2l0,27.01z" fill="#ffe400" id="svg_18"/>
    </g>
   </g>
   <g id="svg_19">
    <g id="svg_20">
     <path d="m344.63,176.24l-21.11,0c-3.56,0 -5.91,2.24 -5.91,4.8l-0.01,0l0,64.84c0,3.27 3.98,4.9 7.95,4.9c3.98,0 7.95,-1.63 7.95,-4.9l0,-22.02l10.1,0c14.06,0 25.07,-6.52 25.07,-23.64l0,-0.52c0.01,-17.13 -10.6,-23.45 -24.07,-23.45l0.01,-0.01zm8.16,25.18c0,6.93 -3.47,10.2 -9.18,10.2l-10.1,0l0,-21.51l10.1,0c5.71,0 9.18,3.26 9.18,10.2l0,1.13l0,-0.01z" fill="#ffe400" id="svg_21"/>
    </g>
   </g>
  </g>
  <text fill="#ffe400" font-family="Roboto" font-size="72" id="svg_38" text-anchor="middle" transform="matrix(1 0 0 1 0 0)" x="250.67" xml:space="preserve" y="491.73">ПРОСТОЙ</text>
 </g>
</svg>