<?xml version="1.0"?>
<svg width="463" height="463" xmlns="http://www.w3.org/2000/svg" xmlns:svg="http://www.w3.org/2000/svg" enable-background="new 0 0 463 463" version="1.1" xml:space="preserve">
 <g class="layer">
  <title>Layer 1</title>
  <g id="svg_1">
   <path d="m443.84,396.91l-42.73,-238.43c-3.97,-22.11 -23.21,-38.2 -45.66,-38.2l-52.61,0c3.97,-9.17 6.18,-19.28 6.18,-29.9c0,-41.56 -33.81,-75.37 -75.37,-75.37s-75.37,33.81 -75.37,75.37c0,10.62 2.23,20.73 6.2,29.9l-52.61,0c-22.47,0 -41.7,16.1 -45.66,38.19l-42.73,238.44c-2.43,13.51 1.27,27.41 10.08,37.96c8.81,10.53 21.83,16.62 35.58,16.62l329.06,0c13.73,0 26.76,-6.09 35.56,-16.62c8.83,-10.54 12.51,-24.44 10.1,-37.96zm-210.2,-335.53c15.99,0 28.99,13 28.99,28.99s-13,28.99 -28.99,28.99s-28.99,-13 -28.99,-28.99s13,-28.99 28.99,-28.99zm-164.52,343.72l42.73,-238.44l243.59,0l42.73,238.44l-329.06,0z" fill="#ffe400" id="svg_2"/>
   <text fill="#ffe400" font-family="Monospace" font-size="24" font-weight="bold" id="svg_20" letter-spacing="0" stroke-width="0" text-anchor="middle" transform="matrix(11.96 0 0 11.96 -828.385 -1273.07)" word-spacing="0" x="88.93" xml:space="preserve" y="137.96">T</text>
  </g>
  <g id="svg_5"/>
  <g id="svg_6"/>
  <g id="svg_7"/>
  <g id="svg_8"/>
  <g id="svg_9"/>
  <g id="svg_10"/>
  <g id="svg_11"/>
  <g id="svg_12"/>
  <g id="svg_13"/>
  <g id="svg_14"/>
  <g id="svg_15"/>
  <g id="svg_16"/>
  <g id="svg_17"/>
  <g id="svg_18"/>
  <g id="svg_19"/>
 </g>
</svg>